<?xml version="1.0" encoding="UTF-8" standalone="no"?>
<svg
   xmlns:dc="http://purl.org/dc/elements/1.1/"
   xmlns:cc="http://creativecommons.org/ns#"
   xmlns:rdf="http://www.w3.org/1999/02/22-rdf-syntax-ns#"
   xmlns:svg="http://www.w3.org/2000/svg"
   xmlns="http://www.w3.org/2000/svg"
   viewBox="0 0 793.70135 256.95468"
   height="256.95468"
   width="793.70135"
   xml:space="preserve"
   id="svg2"
   version="1.1"><metadata
     id="metadata8"><rdf:RDF><cc:Work
         rdf:about=""><dc:format>image/svg+xml</dc:format><dc:type
           rdf:resource="http://purl.org/dc/dcmitype/StillImage" /></cc:Work></rdf:RDF></metadata><defs
     id="defs6"><clipPath
       id="clipPath34"
       clipPathUnits="userSpaceOnUse"><path
         id="path32"
         d="M 0,0 H 595.276 V 192.716 H 0 Z" /></clipPath><clipPath
       id="clipPath56"
       clipPathUnits="userSpaceOnUse"><path
         id="path54"
         d="M 0,0 H 595.276 V 192.716 H 0 Z" /></clipPath><clipPath
       id="clipPath70"
       clipPathUnits="userSpaceOnUse"><path
         id="path68"
         d="M 0,0 H 595.276 V 192.716 H 0 Z" /></clipPath></defs><g
     transform="matrix(1.3333333,0,0,-1.3333333,0,256.95467)"
     id="g10"><g
       transform="translate(144.5669,164.3701)"
       id="g12"><path
         id="path14"
         style="fill:#fddf03;fill-opacity:1;fill-rule:nonzero;stroke:none"
         d="m 0,0 -11.218,-3.046 v 0.029 l -93.664,-25.429 v -23.496 l 10.797,2.933 0.009,-0.03 L 0,-23.473 Z" /></g><g
       transform="translate(90.1584,77.5101)"
       id="g16"><path
         id="path18"
         style="fill:#231f20;fill-opacity:1;fill-rule:nonzero;stroke:none"
         d="m 0,0 v -19.916 h -5.657 v 7.59 h -6.814 v -7.59 h -5.658 V 0 h 5.658 v -7.731 h 6.814 V 0 Z" /></g><g
       transform="translate(107.1935,62.1897)"
       id="g20"><path
         id="path22"
         style="fill:#231f20;fill-opacity:1;fill-rule:nonzero;stroke:none"
         d="M 0,0 V -4.595 H -13.903 V 15.32 h 13.87 V 10.725 H -8.246 V 7.556 h 7.258 V 2.96 H -8.246 V 0 Z" /></g><g
       transform="translate(124.4623,62.1897)"
       id="g24"><path
         id="path26"
         style="fill:#231f20;fill-opacity:1;fill-rule:nonzero;stroke:none"
         d="M 0,0 V -4.595 H -14.175 V 15.32 h 5.658 V 0 Z" /></g><g
       id="g28"><g
         clip-path="url(#clipPath34)"
         id="g30"><g
           transform="translate(142.7852,63.3043)"
           id="g36"><path
             id="path38"
             style="fill:#231f20;fill-opacity:1;fill-rule:nonzero;stroke:none"
             d="m 0,0 c 0,-3.272 -2.316,-5.71 -6.748,-5.71 h -9.302 v 19.916 h 8.145 c 4.293,0 6.712,-2.404 6.712,-5.503 0,-1.565 -0.58,-2.679 -1.773,-3.654 C -0.887,3.864 0,2.299 0,0 m -8.18,9.716 h -2.349 V 6.651 h 2.349 c 0.955,0 1.466,0.799 1.466,1.531 0,0.765 -0.511,1.534 -1.466,1.534 m 2.728,-9.09 c 0,0.871 -0.579,1.741 -1.839,1.741 h -3.238 v -3.586 h 3.238 c 1.226,0 1.839,0.941 1.839,1.845" /></g></g></g><path
       id="path40"
       style="fill:#231f20;fill-opacity:1;fill-rule:nonzero;stroke:none"
       d="m 46.883,70.438 h 2.399 v 8.452 h -2.399 z" /><g
       transform="translate(46.8828,75.59)"
       id="g42"><path
         id="path44"
         style="fill:#231f20;fill-opacity:1;fill-rule:nonzero;stroke:none"
         d="M 0,0 H -7.198 V -16.003 H 14.893 V 0 H 7.381 v -1.957 h 5.597 V -14.046 H -5.282 V -1.957 H 0 l 5.353,1.464 V 1.46 Z" /></g><g
       transform="translate(54.4841,78.8907)"
       id="g46"><path
         id="path48"
         style="fill:#231f20;fill-opacity:1;fill-rule:nonzero;stroke:none"
         d="M 0,0 H -2.307 V -8.453 H 0.092 L 0.092,0 Z" /></g><g
       id="g50"><g
         clip-path="url(#clipPath56)"
         id="g52"><g
           transform="translate(52.8678,60.7828)"
           id="g58"><path
             id="path60"
             style="fill:#231f20;fill-opacity:1;fill-rule:nonzero;stroke:none"
             d="m 0,0 c 0.506,0.414 0.752,0.887 0.752,1.554 0,1.316 -1.027,2.334 -2.85,2.334 h -3.459 v -8.457 h 3.951 c 1.881,0 2.864,1.035 2.864,2.424 C 1.258,-1.167 0.882,-0.503 0,0 m -3.214,1.983 h 1 c 0.405,0 0.622,-0.327 0.622,-0.652 0,-0.311 -0.217,-0.652 -0.622,-0.652 h -1 z m 1.376,-4.646 h -1.376 v 1.525 h 1.376 c 0.536,0 0.782,-0.37 0.782,-0.74 0,-0.385 -0.261,-0.785 -0.782,-0.785" /></g></g></g><path
       id="path62"
       style="fill:#176fc1;fill-opacity:1;fill-rule:nonzero;stroke:none"
       d="M 39.916,0 H 249.449 V 22.676 H 39.916 Z" /><g
       id="g64"><g
         clip-path="url(#clipPath70)"
         id="g66"><path
           id="path72"
           style="fill:#868484;fill-opacity:1;fill-rule:nonzero;stroke:none"
           d="m 447.89,79.948 h 0.511 v 6.762 h -0.511 z m 4.942,1.085 c 1.141,0 1.645,0.518 1.645,1.491 v 2.555 h -0.994 v -2.562 c 0,-0.343 -0.154,-0.644 -0.651,-0.644 -0.49,0 -0.651,0.301 -0.651,0.644 v 2.562 h -0.994 v -2.555 c 0,-0.973 0.504,-1.491 1.645,-1.491 m 4.179,1.4 c 0.973,0 1.666,0.413 1.666,1.351 0,0.896 -0.665,1.295 -1.666,1.295 h -1.554 v -3.948 h 0.98 v 1.302 z m 0.637,1.351 c 0,-0.378 -0.238,-0.525 -0.721,-0.525 h -0.49 v 0.987 h 0.49 c 0.476,0 0.721,-0.098 0.721,-0.462 m 4.872,0.035 c 0,0.812 -0.497,1.26 -1.589,1.26 h -1.54 v -3.948 h 0.973 v 1.4 h 0.511 l 0.742,-1.4 h 1.085 l -0.847,1.554 c 0.42,0.203 0.665,0.546 0.665,1.134 m -1.022,-0.007 c 0,-0.392 -0.259,-0.483 -0.686,-0.483 h -0.455 v 0.938 h 0.483 c 0.441,0 0.658,-0.098 0.658,-0.455 m 3.997,1.267 h -1.092 l -1.393,-3.948 h 0.973 l 0.294,0.868 h 1.316 l 0.294,-0.868 h 1.001 z m -0.553,-0.896 c 0.014,-0.168 0.392,-1.407 0.392,-1.407 h -0.791 c 0,0 0.364,1.239 0.378,1.407 z m 1.764,0.896 1.442,-3.948 h 1.022 l 1.456,3.948 h -1.029 c 0,0 -0.658,-1.946 -0.896,-2.765 h -0.014 c -0.238,0.812 -0.91,2.765 -0.91,2.765 z m 6.223,0 h -1.092 l -1.393,-3.948 h 0.973 l 0.294,0.868 h 1.316 l 0.294,-0.868 h 1.001 z m -0.553,-0.896 c 0.014,-0.168 0.392,-1.407 0.392,-1.407 h -0.791 c 0,0 0.364,1.239 0.378,1.407 z m 4.746,-0.119 c 0,0.378 0.252,0.63 0.777,0.63 0.56,0 0.833,-0.273 0.903,-0.721 l 0.574,0.14 c -0.112,0.651 -0.644,1.043 -1.442,1.043 -0.826,0 -1.407,-0.42 -1.407,-1.141 0,-0.693 0.511,-0.98 1.372,-1.106 0.714,-0.105 0.959,-0.294 0.959,-0.686 0,-0.448 -0.329,-0.714 -0.875,-0.714 -0.686,0 -0.938,0.406 -0.973,0.812 l -0.574,-0.091 c 0.028,-0.651 0.567,-1.183 1.533,-1.183 0.917,0 1.491,0.49 1.491,1.218 0,0.721 -0.504,1.008 -1.4,1.155 -0.7,0.112 -0.938,0.252 -0.938,0.644 m 2.765,0.539 h 1.162 v -3.472 h 0.581 v 3.472 h 1.169 v 0.476 h -2.912 z m 3.64,-3.08 c -0.245,0 -0.371,0.112 -0.567,0.343 l -0.385,-0.378 c 0.217,-0.259 0.483,-0.441 0.98,-0.441 0.917,0 1.085,0.637 1.085,1.372 v 2.66 h -0.581 v -2.66 c 0,-0.609 -0.14,-0.896 -0.532,-0.896 m 4.774,-0.392 v 0.476 h -1.869 v 1.323 h 1.715 v 0.469 h -1.715 v 1.204 h 1.834 v 0.476 h -2.415 v -3.948 z m 2.38,1.554 c 0.819,0 1.4,0.378 1.4,1.204 0,0.84 -0.553,1.19 -1.4,1.19 h -1.407 v -3.948 h 0.581 v 1.554 z m 0.812,1.204 c 0,-0.504 -0.308,-0.735 -0.924,-0.735 h -0.714 v 1.449 h 0.714 c 0.623,0 0.924,-0.189 0.924,-0.714 m 2.687,1.19 h -0.56 l -1.442,-3.948 h 0.567 l 0.371,1.029 h 1.533 l 0.364,-1.029 h 0.609 z m -0.294,-0.721 c 0.098,-0.308 0.602,-1.736 0.602,-1.736 h -1.211 c 0,0 0.504,1.428 0.595,1.736 z m 2.499,-3.227 h 0.539 v 3.073 h 0.014 c 0.455,-0.714 1.967,-3.073 1.967,-3.073 h 0.616 v 3.948 h -0.539 v -3.073 h -0.014 c -0.413,0.658 -1.967,3.073 -1.967,3.073 h -0.616 z m 6.041,0 h 0.581 v 1.799 h 1.82 v -1.799 h 0.581 v 3.948 h -0.581 v -1.673 h -1.82 v 1.673 h -0.581 z m 4.011,1.974 c 0,-1.281 0.735,-2.058 1.813,-2.058 1.071,0 1.806,0.777 1.806,2.058 0,1.267 -0.735,2.051 -1.806,2.051 -1.078,0 -1.813,-0.784 -1.813,-2.051 m 0.602,0 c 0,0.903 0.399,1.575 1.211,1.575 0.805,0 1.204,-0.672 1.204,-1.575 0,-0.903 -0.399,-1.582 -1.204,-1.582 -0.812,0 -1.211,0.679 -1.211,1.582 m 6.818,0.882 c 0,0.882 -0.791,1.092 -1.365,1.092 h -1.407 v -3.948 h 0.574 v 1.673 h 0.707 l 0.959,-1.673 h 0.693 l -1.029,1.729 c 0.525,0.14 0.868,0.539 0.868,1.127 m -0.588,-0.028 c 0,-0.392 -0.238,-0.686 -0.826,-0.686 h -0.784 v 1.33 h 0.721 c 0.574,0 0.889,-0.196 0.889,-0.644 m 1.141,1.12 1.449,-3.948 h 0.553 l 1.463,3.948 h -0.588 c 0,0 -0.826,-2.261 -1.127,-3.213 h -0.007 c -0.301,0.952 -1.127,3.213 -1.127,3.213 z m 5.404,0 h -0.56 l -1.442,-3.948 h 0.567 l 0.371,1.029 h 1.533 l 0.364,-1.029 h 0.609 z m -0.294,-0.721 c 0.098,-0.308 0.602,-1.736 0.602,-1.736 h -1.211 c 0,0 0.504,1.428 0.595,1.736 z m 1.68,0.245 h 1.162 v -3.472 h 0.581 v 3.472 h 1.169 v 0.476 H 521.2 Z m 3.934,-3.304 c 0,0.308 -0.14,0.581 -0.462,0.581 -0.273,0 -0.399,-0.21 -0.399,-0.392 0,-0.224 0.182,-0.385 0.371,-0.385 0.049,0 0.077,0.007 0.077,0.007 v -0.042 c 0,-0.21 -0.203,-0.406 -0.385,-0.413 l 0.105,-0.28 c 0.574,0.105 0.693,0.609 0.693,0.924 m 2.765,-0.168 h 1.372 c 1.134,0 1.834,0.728 1.834,1.974 0,1.239 -0.7,1.974 -1.834,1.974 h -1.372 z m 2.604,1.974 c 0,-0.896 -0.399,-1.498 -1.302,-1.498 h -0.721 v 2.996 h 0.721 c 0.903,0 1.302,-0.602 1.302,-1.498 m 1.631,-1.974 h 0.581 v 3.948 h -0.581 z m 4.613,2.856 c 0,0.882 -0.791,1.092 -1.365,1.092 h -1.407 v -3.948 h 0.574 v 1.673 h 0.707 l 0.959,-1.673 h 0.693 l -1.029,1.729 c 0.525,0.14 0.868,0.539 0.868,1.127 m -0.588,-0.028 c 0,-0.392 -0.238,-0.686 -0.826,-0.686 h -0.784 v 1.33 h 0.721 c 0.574,0 0.889,-0.196 0.889,-0.644 m 4.102,-2.828 v 0.476 h -1.869 v 1.323 h 1.715 v 0.469 h -1.715 v 1.204 h 1.834 v 0.476 h -2.415 v -3.948 z m 3.283,0 h 0.707 l -1.624,2.352 1.491,1.596 h -0.686 l -1.617,-1.715 v 1.715 h -0.581 v -3.948 h 0.581 v 1.512 l 0.406,0.42 z m 0.959,3.472 h 1.162 v -3.472 h 0.581 v 3.472 h 1.169 v 0.476 h -2.912 z m 3.367,-1.498 c 0,-1.281 0.735,-2.058 1.813,-2.058 1.071,0 1.806,0.777 1.806,2.058 0,1.267 -0.735,2.051 -1.806,2.051 -1.078,0 -1.813,-0.784 -1.813,-2.051 m 0.602,0 c 0,0.903 0.399,1.575 1.211,1.575 0.805,0 1.204,-0.672 1.204,-1.575 0,-0.903 -0.399,-1.582 -1.204,-1.582 -0.812,0 -1.211,0.679 -1.211,1.582 m 6.818,0.882 c 0,0.882 -0.791,1.092 -1.365,1.092 h -1.407 v -3.948 h 0.574 v 1.673 h 0.707 l 0.959,-1.673 h 0.693 l -1.029,1.729 c 0.525,0.14 0.868,0.539 0.868,1.127 m -0.588,-0.028 c 0,-0.392 -0.238,-0.686 -0.826,-0.686 h -0.784 v 1.33 h 0.721 c 0.574,0 0.889,-0.196 0.889,-0.644" /><path
           id="path74"
           style="fill:#868484;fill-opacity:1;fill-rule:nonzero;stroke:none"
           d="m 365.145,88.748 h 0.511 v 6.762 h -0.511 z m 2.982,4.655 h 1.162 v -3.472 h 0.581 v 3.472 h 1.169 v 0.476 h -2.912 z m 6.475,-0.616 c 0,0.882 -0.791,1.092 -1.365,1.092 h -1.407 v -3.948 h 0.574 v 1.673 h 0.707 l 0.959,-1.673 h 0.693 l -1.029,1.729 c 0.525,0.14 0.868,0.539 0.868,1.127 m -0.588,-0.028 c 0,-0.392 -0.238,-0.686 -0.826,-0.686 h -0.784 v 1.33 h 0.721 c 0.574,0 0.889,-0.196 0.889,-0.644 m 3.129,-1.281 h 1.113 v -0.259 c 0,-0.609 -0.462,-0.896 -1.001,-0.896 -0.777,0 -1.218,0.553 -1.218,1.547 0,1.057 0.497,1.61 1.225,1.61 0.525,0 0.861,-0.301 1.036,-0.749 l 0.539,0.21 c -0.28,0.644 -0.819,1.015 -1.547,1.015 -1.155,0 -1.855,-0.847 -1.855,-2.051 0,-1.155 0.623,-2.058 1.764,-2.058 0.609,0 0.931,0.266 1.092,0.504 v -0.42 h 0.525 v 2.002 h -1.673 z m 2.632,0.427 c 0,-1.281 0.735,-2.058 1.813,-2.058 1.071,0 1.806,0.777 1.806,2.058 0,1.267 -0.735,2.051 -1.806,2.051 -1.078,0 -1.813,-0.784 -1.813,-2.051 m 0.602,0 c 0,0.903 0.399,1.575 1.211,1.575 0.805,0 1.204,-0.672 1.204,-1.575 0,-0.903 -0.399,-1.582 -1.204,-1.582 -0.812,0 -1.211,0.679 -1.211,1.582 m 3.465,1.974 1.449,-3.948 h 0.553 l 1.463,3.948 h -0.588 c 0,0 -0.826,-2.261 -1.127,-3.213 h -0.007 c -0.301,0.952 -1.127,3.213 -1.127,3.213 z m 5.404,0 h -0.56 l -1.442,-3.948 h 0.567 l 0.371,1.029 h 1.533 l 0.364,-1.029 h 0.609 z m -0.294,-0.721 c 0.098,-0.308 0.602,-1.736 0.602,-1.736 h -1.211 c 0,0 0.504,1.428 0.595,1.736 z m 4.928,1.96 -0.287,0.259 -0.693,-0.749 -0.686,0.749 -0.294,-0.259 0.784,-0.903 h 0.385 z m -2.765,-3.227 c 0,-1.225 0.679,-2.044 1.813,-2.044 0.784,0 1.281,0.392 1.547,1.029 l -0.546,0.196 c -0.175,-0.455 -0.497,-0.749 -1.015,-0.749 -0.77,0 -1.197,0.651 -1.197,1.568 0,0.966 0.441,1.589 1.197,1.589 0.546,0 0.854,-0.322 1.015,-0.763 l 0.553,0.196 c -0.259,0.644 -0.756,1.043 -1.547,1.043 -1.127,0 -1.82,-0.812 -1.82,-2.065 m 6.552,-1.96 h 0.707 l -1.624,2.352 1.491,1.596 h -0.686 l -1.618,-1.715 v 1.715 h -0.58 v -3.948 h 0.58 v 1.512 l 0.407,0.42 z m 1.427,0 h 0.581 v 3.948 h -0.581 z M 403,92.864 c 0,0.378 0.252,0.63 0.777,0.63 0.56,0 0.833,-0.273 0.903,-0.721 l 0.574,0.14 c -0.112,0.651 -0.644,1.043 -1.442,1.043 -0.826,0 -1.407,-0.42 -1.407,-1.141 0,-0.693 0.511,-0.98 1.372,-1.106 0.714,-0.105 0.959,-0.294 0.959,-0.686 0,-0.448 -0.329,-0.714 -0.875,-0.714 -0.686,0 -0.938,0.406 -0.973,0.812 l -0.574,-0.091 c 0.028,-0.651 0.567,-1.183 1.533,-1.183 0.917,0 1.491,0.49 1.491,1.218 0,0.721 -0.504,1.008 -1.4,1.155 -0.7,0.112 -0.938,0.252 -0.938,0.644 m 4.767,-3.017 c 1.015,0 1.484,0.511 1.484,1.484 v 2.548 h -0.581 v -2.555 c 0,-0.504 -0.21,-1.001 -0.903,-1.001 -0.686,0 -0.896,0.497 -0.896,1.001 v 2.555 h -0.581 v -2.548 c 0,-0.973 0.469,-1.484 1.477,-1.484 m 2.695,0.084 h 1.372 c 1.134,0 1.834,0.728 1.834,1.974 0,1.239 -0.7,1.974 -1.834,1.974 h -1.372 z m 2.604,1.974 c 0,-0.896 -0.399,-1.498 -1.302,-1.498 h -0.721 v 2.996 h 0.721 c 0.903,0 1.302,-0.602 1.302,-1.498 m 4.704,-2.058 c 1.015,0 1.484,0.511 1.484,1.484 v 2.548 h -0.581 v -2.555 c 0,-0.504 -0.21,-1.001 -0.903,-1.001 -0.686,0 -0.896,0.497 -0.896,1.001 v 2.555 h -0.581 v -2.548 c 0,-0.973 0.469,-1.484 1.477,-1.484 m 4.088,3.563 h 2.226 l -2.289,-3.073 v -0.406 h 2.996 V 90.4 h -2.261 l 2.275,3.059 v 0.42 h -2.947 z m 5.397,0.469 h -0.56 l -1.442,-3.948 h 0.567 l 0.371,1.029 h 1.533 l 0.364,-1.029 h 0.609 z m -0.294,-0.721 c 0.098,-0.308 0.602,-1.736 0.602,-1.736 h -1.211 c 0,0 0.504,1.428 0.595,1.736 z m 3.871,-1.68 h 1.113 v -0.259 c 0,-0.609 -0.462,-0.896 -1.001,-0.896 -0.777,0 -1.218,0.553 -1.218,1.547 0,1.057 0.497,1.61 1.225,1.61 0.525,0 0.861,-0.301 1.036,-0.749 l 0.539,0.21 c -0.28,0.644 -0.819,1.015 -1.547,1.015 -1.155,0 -1.855,-0.847 -1.855,-2.051 0,-1.155 0.623,-2.058 1.764,-2.058 0.609,0 0.931,0.266 1.092,0.504 v -0.42 h 0.525 v 2.002 h -1.673 z m 5.635,1.309 c 0,0.882 -0.791,1.092 -1.365,1.092 h -1.407 v -3.948 h 0.574 v 1.673 h 0.707 l 0.959,-1.673 h 0.693 l -1.029,1.729 c 0.525,0.14 0.868,0.539 0.868,1.127 m -0.588,-0.028 c 0,-0.392 -0.238,-0.686 -0.826,-0.686 h -0.784 v 1.33 h 0.721 c 0.574,0 0.889,-0.196 0.889,-0.644 m 4.102,-2.828 v 0.476 h -1.869 v 1.323 h 1.715 v 0.469 h -1.715 v 1.204 h 1.834 v 0.476 h -2.415 v -3.948 z m 0.973,0 h 1.54 c 0.749,0 1.281,0.469 1.281,1.141 0,0.581 -0.399,0.854 -0.798,0.91 0.287,0.112 0.63,0.357 0.63,0.903 0,0.609 -0.406,0.994 -1.19,0.994 h -1.463 z m 1.337,3.486 c 0.497,0 0.728,-0.189 0.728,-0.588 0,-0.434 -0.273,-0.644 -0.791,-0.644 h -0.707 v 1.232 z m -0.77,-1.687 h 0.756 c 0.546,0 0.91,-0.175 0.91,-0.665 0,-0.364 -0.203,-0.672 -0.896,-0.672 h -0.77 z m 4.676,-1.883 c 1.015,0 1.484,0.511 1.484,1.484 v 2.548 H 447.1 v -2.555 c 0,-0.504 -0.21,-1.001 -0.903,-1.001 -0.686,0 -0.896,0.497 -0.896,1.001 v 2.555 h -0.581 v -2.548 c 0,-0.973 0.469,-1.484 1.477,-1.484 m 4.374,-1.099 h 0.511 v 6.762 h -0.511 z m 2.954,4.291 h 1.134 v -3.108 h 0.994 v 3.108 h 1.127 v 0.84 h -3.255 z m 6.762,-3.108 v 0.826 h -1.883 v 0.791 h 1.722 v 0.819 h -1.722 v 0.679 h 1.855 v 0.833 h -2.842 v -3.948 z m 3.472,0 c 0.147,0.455 0.686,2.03 0.875,2.695 h 0.014 v -2.695 h 0.889 v 3.948 h -1.372 c 0,0 -0.749,-2.464 -0.84,-2.835 -0.098,0.371 -0.875,2.835 -0.875,2.835 h -1.379 v -3.948 h 0.889 v 2.695 h 0.014 c 0.182,-0.679 0.679,-2.1 0.875,-2.695 z m 5.656,0 v 0.826 h -1.883 v 0.791 h 1.722 v 0.819 h -1.722 v 0.679 h 1.855 v 0.833 h -2.842 v -3.948 z m 0.784,0 h 2.709 v 0.833 h -1.715 v 3.115 h -0.994 z m 4.179,0.735 c -0.217,0 -0.371,0.126 -0.525,0.301 l -0.686,-0.644 c 0.224,-0.266 0.602,-0.49 1.232,-0.49 0.994,0 1.33,0.476 1.33,1.386 v 2.66 h -0.994 v -2.66 c 0,-0.371 -0.084,-0.553 -0.357,-0.553 m 2.331,-0.735 h 0.91 v 2.422 h 0.014 c 0.385,-0.665 1.498,-2.422 1.498,-2.422 h 0.98 v 3.948 h -0.91 v -2.436 h -0.014 c -0.364,0.658 -1.498,2.436 -1.498,2.436 h -0.98 z m 4.41,0 h 0.994 v 3.948 h -0.994 z m 5.796,0 h 1.197 l -1.526,2.352 1.365,1.596 h -1.141 l -1.19,-1.4 v 1.4 h -0.994 v -3.948 h 0.994 v 1.281 l 0.294,0.315 z m 3.864,3.948 h -1.092 l -1.393,-3.948 h 0.973 l 0.294,0.868 h 1.316 l 0.294,-0.868 h 1.001 z m -0.553,-0.896 c 0.014,-0.168 0.392,-1.407 0.392,-1.407 h -0.791 c 0,0 0.364,1.239 0.378,1.407 z m 4.109,-1.75 c 0.973,0 1.666,0.413 1.666,1.351 0,0.896 -0.665,1.295 -1.666,1.295 h -1.554 v -3.948 h 0.98 v 1.302 z m 0.637,1.351 c 0,-0.378 -0.238,-0.525 -0.721,-0.525 h -0.49 v 0.987 h 0.49 c 0.476,0 0.721,-0.098 0.721,-0.462 m 1.743,-2.653 h 0.994 v 3.948 h -0.994 z m 1.631,3.108 h 1.134 v -3.108 h 0.994 v 3.108 h 1.127 v 0.84 h -3.255 z m 5.558,0.84 h -1.092 l -1.393,-3.948 h 0.973 l 0.294,0.868 h 1.316 l 0.294,-0.868 h 1.001 z m -0.553,-0.896 c 0.014,-0.168 0.392,-1.407 0.392,-1.407 h -0.791 c 0,0 0.364,1.239 0.378,1.407 z m 2.555,-3.052 h 2.709 v 0.833 H 506.9 v 3.115 h -0.994 z m 4.829,0.294 c 0.007,-0.455 0.427,-1.232 1.456,-1.232 1.036,0 1.631,0.763 1.631,1.61 0,0.777 -0.49,1.596 -1.505,1.596 -0.483,0 -0.756,-0.189 -0.91,-0.343 l 0.168,1.54 h 1.932 l 0.084,0.483 h -2.45 l -0.28,-2.597 0.49,-0.077 c 0.14,0.308 0.476,0.525 0.903,0.525 0.707,0 0.973,-0.595 0.973,-1.141 0,-0.672 -0.413,-1.127 -1.022,-1.127 -0.595,0 -0.882,0.427 -0.931,0.903 z m 5.446,3.731 c -1.057,0 -1.736,-0.791 -1.736,-2.058 0,-1.267 0.672,-2.051 1.736,-2.051 1.064,0 1.736,0.784 1.736,2.051 0,1.267 -0.679,2.058 -1.736,2.058 m 0,-3.633 c -0.777,0 -1.127,0.728 -1.127,1.575 0,0.833 0.343,1.582 1.127,1.582 0.784,0 1.127,-0.749 1.127,-1.582 0,-0.847 -0.35,-1.575 -1.127,-1.575 m 4.228,3.556 -2.03,-3.199 v -0.441 h 2.226 v -1.162 h 0.546 v 1.162 h 0.693 l 0.084,0.448 h -0.777 v 3.192 z m -1.484,-3.192 1.666,2.667 h 0.014 v -2.667 z m 3.605,-0.406 c 0,-0.231 0.168,-0.399 0.413,-0.399 0.245,0 0.413,0.168 0.413,0.399 0,0.231 -0.168,0.399 -0.413,0.399 -0.245,0 -0.413,-0.168 -0.413,-0.399 m 3.178,4.067 c 0.581,0 0.742,-0.406 0.826,-0.693 l 0.574,0.084 c -0.126,0.518 -0.49,1.078 -1.393,1.078 -1.106,0 -1.722,-0.903 -1.722,-2.562 0,-1.498 0.462,-2.408 1.673,-2.408 1.015,0 1.568,0.742 1.568,1.596 0,0.791 -0.511,1.561 -1.512,1.561 -0.623,0 -1.022,-0.294 -1.19,-0.623 0.035,1.085 0.329,1.967 1.176,1.967 m -0.056,-1.799 c 0.637,0 0.994,-0.469 0.994,-1.141 0,-0.714 -0.42,-1.106 -0.994,-1.106 -0.602,0 -1.029,0.504 -1.029,1.162 0,0.665 0.399,1.085 1.029,1.085 m 4.004,1.407 c -1.057,0 -1.736,-0.791 -1.736,-2.058 0,-1.267 0.672,-2.051 1.736,-2.051 1.064,0 1.736,0.784 1.736,2.051 0,1.267 -0.679,2.058 -1.736,2.058 m 0,-3.633 c -0.777,0 -1.127,0.728 -1.127,1.575 0,0.833 0.343,1.582 1.127,1.582 0.784,0 1.127,-0.749 1.127,-1.582 0,-0.847 -0.35,-1.575 -1.127,-1.575 m 4.228,3.633 c -1.057,0 -1.736,-0.791 -1.736,-2.058 0,-1.267 0.672,-2.051 1.736,-2.051 1.064,0 1.736,0.784 1.736,2.051 0,1.267 -0.679,2.058 -1.736,2.058 m 0,-3.633 c -0.777,0 -1.127,0.728 -1.127,1.575 0,0.833 0.343,1.582 1.127,1.582 0.784,0 1.127,-0.749 1.127,-1.582 0,-0.847 -0.35,-1.575 -1.127,-1.575 m 3.29,-0.224 c 0,0.308 -0.14,0.581 -0.462,0.581 -0.273,0 -0.399,-0.21 -0.399,-0.392 0,-0.224 0.182,-0.385 0.371,-0.385 0.049,0 0.077,0.007 0.077,0.007 v -0.042 c 0,-0.21 -0.203,-0.406 -0.385,-0.413 l 0.105,-0.28 c 0.574,0.105 0.693,0.609 0.693,0.924 m 2.429,3.857 c -1.057,0 -1.736,-0.791 -1.736,-2.058 0,-1.267 0.672,-2.051 1.736,-2.051 1.064,0 1.736,0.784 1.736,2.051 0,1.267 -0.679,2.058 -1.736,2.058 m 0,-3.633 c -0.777,0 -1.127,0.728 -1.127,1.575 0,0.833 0.343,1.582 1.127,1.582 0.784,0 1.127,-0.749 1.127,-1.582 0,-0.847 -0.35,-1.575 -1.127,-1.575 m 4.228,3.633 c -1.057,0 -1.736,-0.791 -1.736,-2.058 0,-1.267 0.672,-2.051 1.736,-2.051 1.064,0 1.736,0.784 1.736,2.051 0,1.267 -0.679,2.058 -1.736,2.058 m 0,-3.633 c -0.777,0 -1.127,0.728 -1.127,1.575 0,0.833 0.343,1.582 1.127,1.582 0.784,0 1.127,-0.749 1.127,-1.582 0,-0.847 -0.35,-1.575 -1.127,-1.575 m 6.699,-0.392 h 0.707 l -1.624,2.352 1.491,1.596 h -0.686 l -1.617,-1.715 v 1.715 h -0.581 v -3.948 h 0.581 v 1.512 l 0.406,0.42 z m 1.428,0 h 0.539 v 3.073 h 0.014 c 0.455,-0.714 1.967,-3.073 1.967,-3.073 h 0.616 v 3.948 h -0.539 v -3.073 h -0.014 c -0.413,0.658 -1.967,3.073 -1.967,3.073 h -0.616 z" /><path
           id="path76"
           style="fill:#868484;fill-opacity:1;fill-rule:nonzero;stroke:none"
           d="m 386.046,97.548 h 0.511 v 6.762 h -0.511 z m 3.325,1.183 h 0.994 v 3.948 h -0.994 z m 2.002,0 h 1.925 c 0.742,0 1.281,0.518 1.281,1.197 0,0.623 -0.462,0.826 -0.777,0.868 0.315,0.105 0.595,0.392 0.595,0.84 0,0.581 -0.441,1.043 -1.176,1.043 h -1.848 z m 1.533,3.143 c 0.336,0 0.469,-0.119 0.469,-0.378 0,-0.294 -0.161,-0.371 -0.511,-0.371 h -0.532 v 0.749 z m -0.574,-1.54 h 0.623 c 0.42,0 0.602,-0.084 0.602,-0.392 0,-0.266 -0.133,-0.413 -0.595,-0.413 h -0.63 z m 5.124,2.345 h -1.092 l -1.393,-3.948 h 0.973 l 0.294,0.868 h 1.316 l 0.294,-0.868 h 1.001 z m -0.553,-0.896 c 0.014,-0.168 0.392,-1.407 0.392,-1.407 h -0.791 c 0,0 0.364,1.239 0.378,1.407 z m 2.555,-3.052 h 0.91 v 2.422 h 0.014 c 0.385,-0.665 1.498,-2.422 1.498,-2.422 h 0.98 v 3.948 h -0.91 v -2.436 h -0.014 c -0.364,0.658 -1.498,2.436 -1.498,2.436 h -0.98 z m 6.18,0 h 0.581 v 1.799 h 1.82 v -1.799 h 0.581 v 3.948 h -0.581 v -1.673 h -1.82 v 1.673 h -0.581 z m 7.084,2.856 c 0,0.882 -0.791,1.092 -1.365,1.092 h -1.407 v -3.948 h 0.574 v 1.673 h 0.707 l 0.959,-1.673 h 0.693 l -1.029,1.729 c 0.525,0.14 0.868,0.539 0.868,1.127 m -0.588,-0.028 c 0,-0.392 -0.238,-0.686 -0.826,-0.686 h -0.784 v 1.33 h 0.721 c 0.574,0 0.889,-0.196 0.889,-0.644 m 3.038,-2.912 c 1.099,0 1.631,0.714 1.631,1.379 0,0.546 -0.35,1.071 -0.889,1.19 0.42,0.161 0.735,0.567 0.735,1.085 0,0.665 -0.511,1.316 -1.47,1.316 -0.973,0 -1.484,-0.651 -1.484,-1.316 0,-0.518 0.315,-0.924 0.735,-1.085 -0.539,-0.119 -0.889,-0.644 -0.889,-1.19 0,-0.665 0.532,-1.379 1.631,-1.379 m 0.896,3.675 c 0,-0.483 -0.294,-0.889 -0.896,-0.889 -0.602,0 -0.896,0.406 -0.896,0.889 0,0.532 0.357,0.833 0.903,0.833 0.532,0 0.889,-0.301 0.889,-0.833 m -0.896,-3.206 c -0.847,0 -1.036,0.56 -1.036,0.917 0,0.476 0.329,0.924 1.036,0.924 0.707,0 1.036,-0.448 1.036,-0.924 0,-0.357 -0.189,-0.917 -1.036,-0.917 m 4.13,3.64 c -1.057,0 -1.736,-0.791 -1.736,-2.058 0,-1.267 0.672,-2.051 1.736,-2.051 1.064,0 1.736,0.784 1.736,2.051 0,1.267 -0.679,2.058 -1.736,2.058 m 0,-3.633 c -0.777,0 -1.127,0.728 -1.127,1.575 0,0.833 0.343,1.582 1.127,1.582 0.784,0 1.127,-0.749 1.127,-1.582 0,-0.847 -0.35,-1.575 -1.127,-1.575 m 2.429,-0.392 h 2.926 v 0.483 h -2.128 c 0.511,0.336 0.987,0.679 1.372,1.029 0.392,0.357 0.714,0.756 0.714,1.274 0,0.581 -0.399,1.239 -1.351,1.239 -0.868,0 -1.379,-0.574 -1.519,-1.358 l 0.581,-0.098 c 0.049,0.427 0.308,0.98 0.931,0.98 0.469,0 0.756,-0.322 0.756,-0.756 0,-0.399 -0.252,-0.728 -0.546,-0.98 -0.357,-0.315 -1.736,-1.351 -1.736,-1.351 z m 4.144,2.765 c 0.056,0.364 0.308,0.798 0.875,0.798 0.469,0 0.84,-0.301 0.84,-0.819 0,-0.518 -0.371,-0.889 -1.043,-0.889 -0.112,0 -0.231,0.007 -0.231,0.007 v -0.49 c 0,0 0.084,0.007 0.238,0.007 0.756,0 1.148,-0.392 1.148,-0.945 0,-0.476 -0.301,-0.903 -0.966,-0.903 -0.735,0 -0.91,0.525 -0.959,0.868 l -0.56,-0.14 c 0.021,-0.434 0.42,-1.197 1.512,-1.197 1.05,0 1.568,0.686 1.568,1.379 0,0.567 -0.343,1.078 -0.875,1.197 0.455,0.175 0.749,0.574 0.749,1.085 0,0.686 -0.525,1.302 -1.421,1.302 -0.931,0 -1.337,-0.679 -1.435,-1.134 z m 4.914,1.652 c 0.581,0 0.742,-0.406 0.826,-0.693 l 0.574,0.084 c -0.126,0.518 -0.49,1.078 -1.393,1.078 -1.106,0 -1.722,-0.903 -1.722,-2.562 0,-1.498 0.462,-2.408 1.673,-2.408 1.015,0 1.568,0.742 1.568,1.596 0,0.791 -0.511,1.561 -1.512,1.561 -0.623,0 -1.022,-0.294 -1.19,-0.623 0.035,1.085 0.329,1.967 1.176,1.967 m -0.056,-1.799 c 0.637,0 0.994,-0.469 0.994,-1.141 0,-0.714 -0.42,-1.106 -0.994,-1.106 -0.602,0 -1.029,0.504 -1.029,1.162 0,0.665 0.399,1.085 1.029,1.085 m 4.074,1.407 c -1.057,0 -1.736,-0.791 -1.736,-2.058 0,-1.267 0.672,-2.051 1.736,-2.051 1.064,0 1.736,0.784 1.736,2.051 0,1.267 -0.679,2.058 -1.736,2.058 m 0,-3.633 c -0.777,0 -1.127,0.728 -1.127,1.575 0,0.833 0.343,1.582 1.127,1.582 0.784,0 1.127,-0.749 1.127,-1.582 0,-0.847 -0.35,-1.575 -1.127,-1.575 m 4.298,3.633 c -1.057,0 -1.736,-0.791 -1.736,-2.058 0,-1.267 0.672,-2.051 1.736,-2.051 1.064,0 1.736,0.784 1.736,2.051 0,1.267 -0.679,2.058 -1.736,2.058 m 0,-3.633 c -0.777,0 -1.127,0.728 -1.127,1.575 0,0.833 0.343,1.582 1.127,1.582 0.784,0 1.127,-0.749 1.127,-1.582 0,-0.847 -0.35,-1.575 -1.127,-1.575 m 4.298,3.633 c -1.057,0 -1.736,-0.791 -1.736,-2.058 0,-1.267 0.672,-2.051 1.736,-2.051 1.064,0 1.736,0.784 1.736,2.051 0,1.267 -0.679,2.058 -1.736,2.058 m 0,-3.633 c -0.777,0 -1.127,0.728 -1.127,1.575 0,0.833 0.343,1.582 1.127,1.582 0.784,0 1.127,-0.749 1.127,-1.582 0,-0.847 -0.35,-1.575 -1.127,-1.575 m 4.298,3.633 c -1.057,0 -1.736,-0.791 -1.736,-2.058 0,-1.267 0.672,-2.051 1.736,-2.051 1.064,0 1.736,0.784 1.736,2.051 0,1.267 -0.679,2.058 -1.736,2.058 m 0,-3.633 c -0.777,0 -1.127,0.728 -1.127,1.575 0,0.833 0.343,1.582 1.127,1.582 0.784,0 1.127,-0.749 1.127,-1.582 0,-0.847 -0.35,-1.575 -1.127,-1.575 m 3.346,3.57 c -0.224,-0.273 -0.602,-0.427 -1.057,-0.49 l 0.112,-0.441 c 0.357,0.014 0.658,0.119 0.847,0.273 v -3.304 h 0.588 v 3.962 z m 2.492,0 c -0.224,-0.273 -0.602,-0.427 -1.057,-0.49 l 0.112,-0.441 c 0.357,0.014 0.658,0.119 0.847,0.273 v -3.304 h 0.588 v 3.962 z m 3.339,0.063 c -1.057,0 -1.736,-0.791 -1.736,-2.058 0,-1.267 0.672,-2.051 1.736,-2.051 1.064,0 1.736,0.784 1.736,2.051 0,1.267 -0.679,2.058 -1.736,2.058 m 0,-3.633 c -0.777,0 -1.127,0.728 -1.127,1.575 0,0.833 0.343,1.582 1.127,1.582 0.784,0 1.127,-0.749 1.127,-1.582 0,-0.847 -0.35,-1.575 -1.127,-1.575 m 3.346,3.57 c -0.224,-0.273 -0.602,-0.427 -1.057,-0.49 l 0.112,-0.441 c 0.357,0.014 0.658,0.119 0.847,0.273 v -3.304 h 0.588 v 3.962 z m 1.54,-3.962 h 2.926 v 0.483 h -2.128 c 0.511,0.336 0.987,0.679 1.372,1.029 0.392,0.357 0.714,0.756 0.714,1.274 0,0.581 -0.399,1.239 -1.351,1.239 -0.868,0 -1.379,-0.574 -1.519,-1.358 l 0.581,-0.098 c 0.049,0.427 0.308,0.98 0.931,0.98 0.469,0 0.756,-0.322 0.756,-0.756 0,-0.399 -0.252,-0.728 -0.546,-0.98 -0.357,-0.315 -1.736,-1.351 -1.736,-1.351 z m 5.53,3.948 -2.03,-3.199 v -0.441 h 2.226 v -1.162 h 0.546 v 1.162 h 0.693 l 0.084,0.448 h -0.777 v 3.192 z m -1.484,-3.192 1.666,2.667 h 0.014 v -2.667 z m 4.346,3.206 c -0.224,-0.273 -0.602,-0.427 -1.057,-0.49 l 0.112,-0.441 c 0.357,0.014 0.658,0.119 0.847,0.273 v -3.304 h 0.588 v 3.962 z m 2.492,0 c -0.224,-0.273 -0.602,-0.427 -1.057,-0.49 l 0.112,-0.441 c 0.357,0.014 0.658,0.119 0.847,0.273 v -3.304 h 0.588 v 3.962 z m 3.059,-4.431 c -0.581,0 -0.742,0.406 -0.826,0.693 l -0.574,-0.084 c 0.126,-0.518 0.49,-1.078 1.393,-1.078 1.106,0 1.722,0.903 1.722,2.555 0,1.554 -0.511,2.408 -1.68,2.408 -1.015,0 -1.561,-0.756 -1.561,-1.617 0,-0.791 0.511,-1.561 1.512,-1.561 0.623,0 1.022,0.301 1.19,0.623 -0.035,-1.064 -0.329,-1.939 -1.176,-1.939 m 0.056,1.771 c -0.637,0 -0.994,0.469 -0.994,1.141 0,0.721 0.413,1.127 0.98,1.127 0.616,0 1.043,-0.518 1.043,-1.183 0,-0.665 -0.399,-1.085 -1.029,-1.085 m 3.311,2.66 c -0.224,-0.273 -0.602,-0.427 -1.057,-0.49 l 0.112,-0.441 c 0.357,0.014 0.658,0.119 0.847,0.273 v -3.304 h 0.588 v 3.962 z m 2.576,-3.794 c 0,0.308 -0.14,0.581 -0.462,0.581 -0.273,0 -0.399,-0.21 -0.399,-0.392 0,-0.224 0.182,-0.385 0.371,-0.385 0.049,0 0.077,0.007 0.077,0.007 v -0.042 c 0,-0.21 -0.203,-0.406 -0.385,-0.413 l 0.105,-0.28 c 0.574,0.105 0.693,0.609 0.693,0.924 m 2.653,3.311 h 2.226 l -2.289,-3.073 v -0.406 h 2.996 V 99.2 h -2.261 l 2.275,3.059 v 0.42 h -2.947 z m 5.397,0.469 h -0.56 l -1.442,-3.948 h 0.567 l 0.371,1.029 h 1.533 l 0.364,-1.029 h 0.609 z m -0.294,-0.721 c 0.098,-0.308 0.602,-1.736 0.602,-1.736 h -1.211 c 0,0 0.504,1.428 0.595,1.736 z m 3.871,-1.68 h 1.113 v -0.259 c 0,-0.609 -0.462,-0.896 -1.001,-0.896 -0.777,0 -1.218,0.553 -1.218,1.547 0,1.057 0.497,1.61 1.225,1.61 0.525,0 0.861,-0.301 1.036,-0.749 l 0.539,0.21 c -0.28,0.644 -0.819,1.015 -1.547,1.015 -1.155,0 -1.855,-0.847 -1.855,-2.051 0,-1.155 0.623,-2.058 1.764,-2.058 0.609,0 0.931,0.266 1.092,0.504 v -0.42 h 0.525 v 2.002 h -1.673 z m 5.635,1.309 c 0,0.882 -0.791,1.092 -1.365,1.092 h -1.407 v -3.948 h 0.574 v 1.673 h 0.707 l 0.959,-1.673 h 0.693 l -1.029,1.729 c 0.525,0.14 0.868,0.539 0.868,1.127 m -0.588,-0.028 c 0,-0.392 -0.238,-0.686 -0.826,-0.686 h -0.784 v 1.33 h 0.721 c 0.574,0 0.889,-0.196 0.889,-0.644 m 4.102,-2.828 v 0.476 h -1.869 v 1.323 h 1.715 v 0.469 h -1.715 v 1.204 h 1.834 v 0.476 h -2.415 v -3.948 z m 0.973,0 h 1.54 c 0.749,0 1.281,0.469 1.281,1.141 0,0.581 -0.399,0.854 -0.798,0.91 0.287,0.112 0.63,0.357 0.63,0.903 0,0.609 -0.406,0.994 -1.19,0.994 h -1.463 z m 1.337,3.486 c 0.497,0 0.728,-0.189 0.728,-0.588 0,-0.434 -0.273,-0.644 -0.791,-0.644 h -0.707 v 1.232 z m -0.77,-1.687 h 0.756 c 0.546,0 0.91,-0.175 0.91,-0.665 0,-0.364 -0.203,-0.672 -0.896,-0.672 h -0.77 z m 4.753,2.149 h -0.56 l -1.442,-3.948 h 0.567 l 0.371,1.029 h 1.533 l 0.364,-1.029 h 0.609 z m -0.294,-0.721 c 0.098,-0.308 0.602,-1.736 0.602,-1.736 h -1.211 c 0,0 0.504,1.428 0.595,1.736 z m 4.928,1.96 -0.287,0.259 -0.693,-0.749 -0.686,0.749 -0.294,-0.259 0.784,-0.903 h 0.385 z m -2.765,-3.227 c 0,-1.225 0.679,-2.044 1.813,-2.044 0.784,0 1.281,0.392 1.547,1.029 l -0.546,0.196 c -0.175,-0.455 -0.497,-0.749 -1.015,-0.749 -0.77,0 -1.197,0.651 -1.197,1.568 0,0.966 0.441,1.589 1.197,1.589 0.546,0 0.854,-0.322 1.015,-0.763 l 0.553,0.196 c -0.259,0.644 -0.756,1.043 -1.547,1.043 -1.127,0 -1.82,-0.812 -1.82,-2.065 m 6.552,-1.96 h 0.707 l -1.624,2.352 1.491,1.596 h -0.686 l -1.617,-1.715 v 1.715 h -0.581 v -3.948 h 0.581 v 1.512 l 0.406,0.42 z m 2.933,3.948 h -0.56 l -1.442,-3.948 h 0.567 l 0.371,1.029 h 1.533 l 0.364,-1.029 h 0.609 z m -0.294,-0.721 c 0.098,-0.308 0.602,-1.736 0.602,-1.736 h -1.211 c 0,0 0.504,1.428 0.595,1.736 z m 4.144,-3.227 h 1.54 c 0.749,0 1.281,0.469 1.281,1.141 0,0.581 -0.399,0.854 -0.798,0.91 0.287,0.112 0.63,0.357 0.63,0.903 0,0.609 -0.406,0.994 -1.19,0.994 h -1.463 z m 1.337,3.486 c 0.497,0 0.728,-0.189 0.728,-0.588 0,-0.434 -0.273,-0.644 -0.791,-0.644 h -0.707 v 1.232 z m -0.77,-1.687 h 0.756 c 0.546,0 0.91,-0.175 0.91,-0.665 0,-0.364 -0.203,-0.672 -0.896,-0.672 h -0.77 z m 4.753,2.149 h -0.56 l -1.442,-3.948 h 0.567 l 0.371,1.029 h 1.533 l 0.364,-1.029 h 0.609 z m -0.294,-0.721 c 0.098,-0.308 0.602,-1.736 0.602,-1.736 h -1.211 c 0,0 0.504,1.428 0.595,1.736 z m 2.499,-3.227 h 0.539 v 3.073 h 0.014 c 0.455,-0.714 1.967,-3.073 1.967,-3.073 h 0.616 v 3.948 h -0.539 v -3.073 h -0.014 c -0.413,0.658 -1.967,3.073 -1.967,3.073 h -0.616 z m 6.706,0 h 0.707 l -1.624,2.352 1.491,1.596 h -0.686 l -1.617,-1.715 v 1.715 h -0.581 v -3.948 h 0.581 v 1.512 l 0.406,0.42 z m 2.933,3.948 h -0.56 l -1.442,-3.948 h 0.567 l 0.371,1.029 h 1.533 l 0.364,-1.029 h 0.609 z m -0.294,-0.721 c 0.098,-0.308 0.602,-1.736 0.602,-1.736 h -1.211 c 0,0 0.504,1.428 0.595,1.736 z m 4.144,-3.227 h 1.372 c 1.134,0 1.834,0.728 1.834,1.974 0,1.239 -0.7,1.974 -1.834,1.974 h -1.372 z m 2.604,1.974 c 0,-0.896 -0.399,-1.498 -1.302,-1.498 h -0.721 v 2.996 h 0.721 c 0.903,0 1.302,-0.602 1.302,-1.498 m 1.211,-1.624 c 0,-0.231 0.168,-0.399 0.413,-0.399 0.245,0 0.413,0.168 0.413,0.399 0,0.231 -0.168,0.399 -0.413,0.399 -0.245,0 -0.413,-0.168 -0.413,-0.399 m 1.841,-0.35 h 1.372 c 1.134,0 1.834,0.728 1.834,1.974 0,1.239 -0.7,1.974 -1.834,1.974 h -1.372 z m 2.604,1.974 c 0,-0.896 -0.399,-1.498 -1.302,-1.498 h -0.721 v 2.996 h 0.721 c 0.903,0 1.302,-0.602 1.302,-1.498 m 1.211,-1.624 c 0,-0.231 0.168,-0.399 0.413,-0.399 0.245,0 0.413,0.168 0.413,0.399 0,0.231 -0.168,0.399 -0.413,0.399 -0.245,0 -0.413,-0.168 -0.413,-0.399" /><path
           id="path78"
           style="fill:#868484;fill-opacity:1;fill-rule:nonzero;stroke:none"
           d="m 444.243,106.348 h 0.511 v 6.762 h -0.511 z m 3.15,3.157 c 0,-1.295 0.791,-2.072 1.988,-2.072 1.197,0 1.988,0.777 1.988,2.072 0,1.295 -0.791,2.065 -1.988,2.065 -1.197,0 -1.988,-0.77 -1.988,-2.065 m 1.043,0 c 0,0.749 0.301,1.232 0.945,1.232 0.644,0 0.945,-0.483 0.945,-1.232 0,-0.756 -0.301,-1.239 -0.945,-1.239 -0.644,0 -0.945,0.483 -0.945,1.239 m 3.766,-1.974 h 0.994 v 3.948 h -0.994 z m 2.002,0 h 1.925 c 0.742,0 1.281,0.518 1.281,1.197 0,0.623 -0.462,0.826 -0.777,0.868 0.315,0.105 0.595,0.392 0.595,0.84 0,0.581 -0.441,1.043 -1.176,1.043 h -1.848 z m 1.533,3.143 c 0.336,0 0.469,-0.119 0.469,-0.378 0,-0.294 -0.161,-0.371 -0.511,-0.371 h -0.532 v 0.749 z m -0.574,-1.54 h 0.623 c 0.42,0 0.602,-0.084 0.602,-0.392 0,-0.266 -0.133,-0.413 -0.595,-0.413 h -0.63 z m 5.117,1.162 c 0.056,0.364 0.308,0.798 0.875,0.798 0.469,0 0.84,-0.301 0.84,-0.819 0,-0.518 -0.371,-0.889 -1.043,-0.889 -0.112,0 -0.231,0.007 -0.231,0.007 v -0.49 c 0,0 0.084,0.007 0.238,0.007 0.756,0 1.148,-0.392 1.148,-0.945 0,-0.476 -0.301,-0.903 -0.966,-0.903 -0.735,0 -0.91,0.525 -0.959,0.868 l -0.56,-0.14 c 0.021,-0.434 0.42,-1.197 1.512,-1.197 1.05,0 1.568,0.686 1.568,1.379 0,0.567 -0.343,1.078 -0.875,1.197 0.455,0.175 0.749,0.574 0.749,1.085 0,0.686 -0.525,1.302 -1.421,1.302 -0.931,0 -1.337,-0.679 -1.435,-1.134 z m 4.753,-2.849 c 1.099,0 1.631,0.714 1.631,1.379 0,0.546 -0.35,1.071 -0.889,1.19 0.42,0.161 0.735,0.567 0.735,1.085 0,0.665 -0.511,1.316 -1.47,1.316 -0.973,0 -1.484,-0.651 -1.484,-1.316 0,-0.518 0.315,-0.924 0.735,-1.085 -0.539,-0.119 -0.889,-0.644 -0.889,-1.19 0,-0.665 0.532,-1.379 1.631,-1.379 m 0.896,3.675 c 0,-0.483 -0.294,-0.889 -0.896,-0.889 -0.602,0 -0.896,0.406 -0.896,0.889 0,0.532 0.357,0.833 0.903,0.833 0.532,0 0.889,-0.301 0.889,-0.833 m -0.896,-3.206 c -0.847,0 -1.036,0.56 -1.036,0.917 0,0.476 0.329,0.924 1.036,0.924 0.707,0 1.036,-0.448 1.036,-0.924 0,-0.357 -0.189,-0.917 -1.036,-0.917 m 3.85,-0.854 c -0.581,0 -0.742,0.406 -0.826,0.693 l -0.574,-0.084 c 0.126,-0.518 0.49,-1.078 1.393,-1.078 1.106,0 1.722,0.903 1.722,2.555 0,1.554 -0.511,2.408 -1.68,2.408 -1.015,0 -1.561,-0.756 -1.561,-1.617 0,-0.791 0.511,-1.561 1.512,-1.561 0.623,0 1.022,0.301 1.19,0.623 -0.035,-1.064 -0.329,-1.939 -1.176,-1.939 m 0.056,1.771 c -0.637,0 -0.994,0.469 -0.994,1.141 0,0.721 0.413,1.127 0.98,1.127 0.616,0 1.043,-0.518 1.043,-1.183 0,-0.665 -0.399,-1.085 -1.029,-1.085 m 2.982,1.463 c 0.056,0.364 0.308,0.798 0.875,0.798 0.469,0 0.84,-0.301 0.84,-0.819 0,-0.518 -0.371,-0.889 -1.043,-0.889 -0.112,0 -0.231,0.007 -0.231,0.007 v -0.49 c 0,0 0.084,0.007 0.238,0.007 0.756,0 1.148,-0.392 1.148,-0.945 0,-0.476 -0.301,-0.903 -0.966,-0.903 -0.735,0 -0.91,0.525 -0.959,0.868 l -0.56,-0.14 c 0.021,-0.434 0.42,-1.197 1.512,-1.197 1.05,0 1.568,0.686 1.568,1.379 0,0.567 -0.343,1.078 -0.875,1.197 0.455,0.175 0.749,0.574 0.749,1.085 0,0.686 -0.525,1.302 -1.421,1.302 -0.931,0 -1.337,-0.679 -1.435,-1.134 z m 3.157,-2.471 c 0.007,-0.455 0.427,-1.232 1.456,-1.232 1.036,0 1.631,0.763 1.631,1.61 0,0.777 -0.49,1.596 -1.505,1.596 -0.483,0 -0.756,-0.189 -0.91,-0.343 l 0.168,1.54 h 1.932 l 0.084,0.483 h -2.45 l -0.28,-2.597 0.49,-0.077 c 0.14,0.308 0.476,0.525 0.903,0.525 0.707,0 0.973,-0.595 0.973,-1.141 0,-0.672 -0.413,-1.127 -1.022,-1.127 -0.595,0 -0.882,0.427 -0.931,0.903 z m 5.236,-0.763 c -0.581,0 -0.742,0.406 -0.826,0.693 l -0.574,-0.084 c 0.126,-0.518 0.49,-1.078 1.393,-1.078 1.106,0 1.722,0.903 1.722,2.555 0,1.554 -0.511,2.408 -1.68,2.408 -1.015,0 -1.561,-0.756 -1.561,-1.617 0,-0.791 0.511,-1.561 1.512,-1.561 0.623,0 1.022,0.301 1.19,0.623 -0.035,-1.064 -0.329,-1.939 -1.176,-1.939 m 0.056,1.771 c -0.637,0 -0.994,0.469 -0.994,1.141 0,0.721 0.413,1.127 0.98,1.127 0.616,0 1.043,-0.518 1.043,-1.183 0,-0.665 -0.399,-1.085 -1.029,-1.085 m 3.948,-1.771 c -0.581,0 -0.742,0.406 -0.826,0.693 l -0.574,-0.084 c 0.126,-0.518 0.49,-1.078 1.393,-1.078 1.106,0 1.722,0.903 1.722,2.555 0,1.554 -0.511,2.408 -1.68,2.408 -1.015,0 -1.561,-0.756 -1.561,-1.617 0,-0.791 0.511,-1.561 1.512,-1.561 0.623,0 1.022,0.301 1.19,0.623 -0.035,-1.064 -0.329,-1.939 -1.176,-1.939 m 0.056,1.771 c -0.637,0 -0.994,0.469 -0.994,1.141 0,0.721 0.413,1.127 0.98,1.127 0.616,0 1.043,-0.518 1.043,-1.183 0,-0.665 -0.399,-1.085 -1.029,-1.085 m 3.311,2.66 c -0.224,-0.273 -0.602,-0.427 -1.057,-0.49 l 0.112,-0.441 c 0.357,0.014 0.658,0.119 0.847,0.273 v -3.304 h 0.588 v 3.962 z m 3.059,-4.431 c -0.581,0 -0.742,0.406 -0.826,0.693 l -0.574,-0.084 c 0.126,-0.518 0.49,-1.078 1.393,-1.078 1.106,0 1.722,0.903 1.722,2.555 0,1.554 -0.511,2.408 -1.68,2.408 -1.015,0 -1.561,-0.756 -1.561,-1.617 0,-0.791 0.511,-1.561 1.512,-1.561 0.623,0 1.022,0.301 1.19,0.623 -0.035,-1.064 -0.329,-1.939 -1.176,-1.939 m 0.056,1.771 c -0.637,0 -0.994,0.469 -0.994,1.141 0,0.721 0.413,1.127 0.98,1.127 0.616,0 1.043,-0.518 1.043,-1.183 0,-0.665 -0.399,-1.085 -1.029,-1.085 m 4.228,2.723 c -1.057,0 -1.736,-0.791 -1.736,-2.058 0,-1.267 0.672,-2.051 1.736,-2.051 1.064,0 1.736,0.784 1.736,2.051 0,1.267 -0.679,2.058 -1.736,2.058 m 0,-3.633 c -0.777,0 -1.127,0.728 -1.127,1.575 0,0.833 0.343,1.582 1.127,1.582 0.784,0 1.127,-0.749 1.127,-1.582 0,-0.847 -0.35,-1.575 -1.127,-1.575 m 4.298,3.556 -2.03,-3.199 v -0.441 h 2.225 v -1.162 h 0.547 v 1.162 h 0.692 l 0.084,0.448 h -0.776 v 3.192 z m -1.485,-3.192 1.667,2.667 h 0.013 v -2.667 z m 5.495,-1.939 h 0.511 v 6.762 h -0.511 z m 6.013,1.183 c 0.147,0.455 0.686,2.03 0.875,2.695 h 0.014 v -2.695 h 0.889 v 3.948 h -1.372 c 0,0 -0.749,-2.464 -0.84,-2.835 -0.098,0.371 -0.875,2.835 -0.875,2.835 h -1.379 v -3.948 h 0.889 v 2.695 h 0.014 c 0.182,-0.679 0.679,-2.1 0.875,-2.695 z m 2.786,0 h 1.925 c 0.742,0 1.281,0.518 1.281,1.197 0,0.623 -0.462,0.826 -0.777,0.868 0.315,0.105 0.595,0.392 0.595,0.84 0,0.581 -0.441,1.043 -1.176,1.043 h -1.848 z m 1.533,3.143 c 0.336,0 0.469,-0.119 0.469,-0.378 0,-0.294 -0.161,-0.371 -0.511,-0.371 h -0.532 v 0.749 z m -0.574,-1.54 h 0.623 c 0.42,0 0.602,-0.084 0.602,-0.392 0,-0.266 -0.133,-0.413 -0.595,-0.413 h -0.63 z m 3.899,1.267 c 0,0.252 0.182,0.378 0.511,0.378 0.406,0 0.651,-0.175 0.714,-0.518 l 1.001,0.21 c -0.154,0.742 -0.805,1.099 -1.68,1.099 -0.889,0 -1.547,-0.378 -1.547,-1.225 0,-0.896 0.742,-1.092 1.505,-1.239 0.448,-0.084 0.777,-0.147 0.777,-0.441 0,-0.329 -0.343,-0.434 -0.644,-0.434 -0.434,0 -0.686,0.21 -0.728,0.574 l -0.987,-0.161 c 0.035,-0.63 0.679,-1.211 1.708,-1.211 0.917,0 1.652,0.462 1.652,1.323 0,0.868 -0.777,1.05 -1.365,1.162 -0.63,0.119 -0.917,0.175 -0.917,0.483 m 6.328,1.155 c -1.057,0 -1.736,-0.791 -1.736,-2.058 0,-1.267 0.672,-2.051 1.736,-2.051 1.064,0 1.736,0.784 1.736,2.051 0,1.267 -0.679,2.058 -1.736,2.058 m 0,-3.633 c -0.777,0 -1.127,0.728 -1.127,1.575 0,0.833 0.343,1.582 1.127,1.582 0.784,0 1.127,-0.749 1.127,-1.582 0,-0.847 -0.35,-1.575 -1.127,-1.575 m 4.13,-0.476 c 1.099,0 1.631,0.714 1.631,1.379 0,0.546 -0.35,1.071 -0.889,1.19 0.42,0.161 0.735,0.567 0.735,1.085 0,0.665 -0.511,1.316 -1.47,1.316 -0.973,0 -1.484,-0.651 -1.484,-1.316 0,-0.518 0.315,-0.924 0.735,-1.085 -0.539,-0.119 -0.889,-0.644 -0.889,-1.19 0,-0.665 0.532,-1.379 1.631,-1.379 m 0.896,3.675 c 0,-0.483 -0.294,-0.889 -0.896,-0.889 -0.602,0 -0.896,0.406 -0.896,0.889 0,0.532 0.357,0.833 0.903,0.833 0.532,0 0.889,-0.301 0.889,-0.833 m -0.896,-3.206 c -0.847,0 -1.036,0.56 -1.036,0.917 0,0.476 0.329,0.924 1.036,0.924 0.707,0 1.036,-0.448 1.036,-0.924 0,-0.357 -0.189,-0.917 -1.036,-0.917 m 4.13,3.64 c -1.057,0 -1.736,-0.791 -1.736,-2.058 0,-1.267 0.672,-2.051 1.736,-2.051 1.064,0 1.736,0.784 1.736,2.051 0,1.267 -0.679,2.058 -1.736,2.058 m 0,-3.633 c -0.777,0 -1.127,0.728 -1.127,1.575 0,0.833 0.343,1.582 1.127,1.582 0.784,0 1.127,-0.749 1.127,-1.582 0,-0.847 -0.35,-1.575 -1.127,-1.575 m 4.298,3.633 c -1.057,0 -1.736,-0.791 -1.736,-2.058 0,-1.267 0.672,-2.051 1.736,-2.051 1.064,0 1.736,0.784 1.736,2.051 0,1.267 -0.679,2.058 -1.736,2.058 m 0,-3.633 c -0.777,0 -1.127,0.728 -1.127,1.575 0,0.833 0.343,1.582 1.127,1.582 0.784,0 1.127,-0.749 1.127,-1.582 0,-0.847 -0.35,-1.575 -1.127,-1.575 m 2.429,-0.392 h 2.926 v 0.483 h -2.128 c 0.511,0.336 0.987,0.679 1.372,1.029 0.392,0.357 0.714,0.756 0.714,1.274 0,0.581 -0.399,1.239 -1.351,1.239 -0.868,0 -1.379,-0.574 -1.519,-1.358 l 0.581,-0.098 c 0.049,0.427 0.308,0.98 0.931,0.98 0.469,0 0.756,-0.322 0.756,-0.756 0,-0.399 -0.252,-0.728 -0.546,-0.98 -0.357,-0.315 -1.736,-1.351 -1.736,-1.351 z m 5.425,4.025 c -1.057,0 -1.736,-0.791 -1.736,-2.058 0,-1.267 0.672,-2.051 1.736,-2.051 1.064,0 1.736,0.784 1.736,2.051 0,1.267 -0.679,2.058 -1.736,2.058 m 0,-3.633 c -0.777,0 -1.127,0.728 -1.127,1.575 0,0.833 0.343,1.582 1.127,1.582 0.784,0 1.127,-0.749 1.127,-1.582 0,-0.847 -0.35,-1.575 -1.127,-1.575 m 3.346,3.57 c -0.224,-0.273 -0.602,-0.427 -1.057,-0.49 l 0.112,-0.441 c 0.357,0.014 0.658,0.119 0.847,0.273 v -3.304 h 0.588 v 3.962 z m 1.358,-0.497 h 2.513 c -0.63,-0.707 -1.687,-2.373 -1.687,-4.319 h 0.602 c 0,1.974 1.085,3.612 1.722,4.417 v 0.385 h -3.066 z m 5.187,-3.934 c -0.581,0 -0.742,0.406 -0.826,0.693 l -0.574,-0.084 c 0.126,-0.518 0.49,-1.078 1.393,-1.078 1.106,0 1.722,0.903 1.722,2.555 0,1.554 -0.511,2.408 -1.68,2.408 -1.015,0 -1.561,-0.756 -1.561,-1.617 0,-0.791 0.511,-1.561 1.512,-1.561 0.623,0 1.022,0.301 1.19,0.623 -0.035,-1.064 -0.329,-1.939 -1.176,-1.939 m 0.056,1.771 c -0.637,0 -0.994,0.469 -0.994,1.141 0,0.721 0.413,1.127 0.98,1.127 0.616,0 1.043,-0.518 1.043,-1.183 0,-0.665 -0.399,-1.085 -1.029,-1.085" /><path
           id="path80"
           style="fill:#868484;fill-opacity:1;fill-rule:nonzero;stroke:none"
           d="m 460.763,123.948 h 0.511 v 6.762 h -0.511 z m 3.451,1.183 h 0.581 v 1.799 h 1.82 v -1.799 h 0.581 v 3.948 h -0.581 v -1.673 h -1.82 v 1.673 h -0.581 z m 6.692,0 v 0.476 h -1.869 v 1.323 h 1.715 v 0.469 h -1.715 v 1.204 h 1.834 v 0.476 h -2.415 v -3.948 z m 0.973,0 h 2.331 v 0.476 h -1.75 v 3.472 h -0.581 z m 3.114,0 h 1.54 c 0.749,0 1.281,0.469 1.281,1.141 0,0.581 -0.399,0.854 -0.798,0.91 0.287,0.112 0.63,0.357 0.63,0.903 0,0.609 -0.406,0.994 -1.19,0.994 h -1.463 z m 1.337,3.486 c 0.497,0 0.728,-0.189 0.728,-0.588 0,-0.434 -0.273,-0.644 -0.791,-0.644 h -0.707 v 1.232 z m -0.77,-1.687 h 0.756 c 0.546,0 0.91,-0.175 0.91,-0.665 0,-0.364 -0.203,-0.672 -0.896,-0.672 h -0.77 z m 6.818,1.078 c -0.105,0.259 -0.441,0.462 -0.861,0.462 -0.784,0 -1.428,-0.735 -1.428,-1.68 0,-0.805 0.469,-1.288 1.085,-1.288 0.343,0 0.756,0.147 0.98,0.525 0.056,-0.224 0.224,-0.525 0.742,-0.525 1.001,0 1.61,0.987 1.61,2.086 0,1.561 -1.211,2.541 -2.758,2.541 -1.722,0 -3.234,-1.253 -3.234,-3.269 0,-1.617 0.98,-2.975 3.045,-2.975 1.106,0 1.82,0.392 2.282,0.742 l -0.28,0.399 c -0.504,-0.364 -1.099,-0.693 -1.967,-0.693 -1.421,0 -2.541,0.875 -2.541,2.506 0,1.708 1.218,2.849 2.709,2.849 1.351,0 2.226,-0.896 2.226,-2.156 0,-1.015 -0.588,-1.603 -1.057,-1.603 -0.217,0 -0.357,0.14 -0.357,0.399 0,0.056 0.007,0.112 0.021,0.175 l 0.364,1.904 h -0.511 z m -0.231,-1.246 c -0.098,-0.476 -0.441,-0.833 -0.882,-0.833 -0.399,0 -0.637,0.364 -0.637,0.896 0,0.658 0.427,1.225 0.952,1.225 0.42,0 0.763,-0.378 0.623,-1.022 z m 3.297,-1.631 h 0.581 v 1.799 h 1.82 v -1.799 h 0.581 v 3.948 h -0.581 v -1.673 h -1.82 v 1.673 h -0.581 z m 6.692,0 v 0.476 h -1.869 v 1.323 h 1.715 v 0.469 h -1.715 v 1.204 h 1.834 v 0.476 h -2.415 v -3.948 z m 0.973,0 h 2.331 v 0.476 h -1.75 v 3.472 h -0.581 z m 3.115,0 h 1.54 c 0.749,0 1.281,0.469 1.281,1.141 0,0.581 -0.399,0.854 -0.798,0.91 0.287,0.112 0.63,0.357 0.63,0.903 0,0.609 -0.406,0.994 -1.19,0.994 h -1.463 z m 1.337,3.486 c 0.497,0 0.728,-0.189 0.728,-0.588 0,-0.434 -0.273,-0.644 -0.791,-0.644 h -0.707 v 1.232 z m -0.77,-1.687 h 0.756 c 0.546,0 0.91,-0.175 0.91,-0.665 0,-0.364 -0.203,-0.672 -0.896,-0.672 h -0.77 z m 3.038,-1.449 c 0,-0.231 0.168,-0.399 0.413,-0.399 0.245,0 0.413,0.168 0.413,0.399 0,0.231 -0.168,0.399 -0.413,0.399 -0.245,0 -0.413,-0.168 -0.413,-0.399 m 1.841,-0.35 h 0.581 v 1.799 h 1.82 v -1.799 h 0.581 v 3.948 h -0.581 v -1.673 h -1.82 v 1.673 h -0.581 z m 7.014,2.856 c 0,0.882 -0.791,1.092 -1.365,1.092 h -1.407 v -3.948 h 0.574 v 1.673 h 0.707 l 0.959,-1.673 h 0.693 l -1.029,1.729 c 0.525,0.14 0.868,0.539 0.868,1.127 m -0.588,-0.028 c 0,-0.392 -0.238,-0.686 -0.826,-0.686 h -0.784 v 1.33 h 0.721 c 0.574,0 0.889,-0.196 0.889,-0.644 m 3.332,-4.011 h 0.511 v 6.762 h -0.511 z m 7.427,5.131 c 0,0 -0.686,-2.527 -0.847,-3.241 h -0.014 c -0.147,0.714 -0.826,3.241 -0.826,3.241 h -0.532 c 0,0 -0.679,-2.45 -0.854,-3.241 h -0.007 c -0.168,0.791 -0.826,3.241 -0.826,3.241 h -0.581 l 1.078,-3.948 h 0.602 c 0,0 0.644,2.317 0.826,3.094 h 0.014 c 0.175,-0.777 0.805,-3.094 0.805,-3.094 h 0.602 l 1.085,3.948 z m 5.25,0 c 0,0 -0.686,-2.527 -0.847,-3.241 h -0.014 c -0.147,0.714 -0.826,3.241 -0.826,3.241 h -0.532 c 0,0 -0.679,-2.45 -0.854,-3.241 h -0.007 c -0.168,0.791 -0.826,3.241 -0.826,3.241 h -0.581 l 1.078,-3.948 h 0.602 c 0,0 0.644,2.317 0.826,3.094 h 0.014 c 0.175,-0.777 0.805,-3.094 0.805,-3.094 h 0.602 l 1.085,3.948 z m 5.25,0 c 0,0 -0.686,-2.527 -0.847,-3.241 h -0.014 c -0.147,0.714 -0.826,3.241 -0.826,3.241 h -0.532 c 0,0 -0.679,-2.45 -0.854,-3.241 h -0.007 c -0.168,0.791 -0.826,3.241 -0.826,3.241 h -0.581 l 1.078,-3.948 h 0.602 c 0,0 0.644,2.317 0.826,3.094 h 0.014 c 0.175,-0.777 0.805,-3.094 0.805,-3.094 h 0.602 l 1.085,3.948 z m 0.854,-3.598 c 0,-0.231 0.168,-0.399 0.413,-0.399 0.245,0 0.413,0.168 0.413,0.399 0,0.231 -0.168,0.399 -0.413,0.399 -0.245,0 -0.413,-0.168 -0.413,-0.399 m 1.841,-0.35 h 0.581 v 1.799 h 1.82 v -1.799 h 0.581 v 3.948 h -0.581 v -1.673 h -1.82 v 1.673 h -0.581 z m 6.692,0 v 0.476 h -1.869 v 1.323 h 1.715 v 0.469 h -1.715 v 1.204 h 1.834 v 0.476 h -2.415 v -3.948 z m 0.973,0 h 2.331 v 0.476 h -1.75 v 3.472 h -0.581 z m 3.115,0 h 1.54 c 0.749,0 1.281,0.469 1.281,1.141 0,0.581 -0.399,0.854 -0.798,0.91 0.287,0.112 0.63,0.357 0.63,0.903 0,0.609 -0.406,0.994 -1.19,0.994 h -1.463 z m 1.337,3.486 c 0.497,0 0.728,-0.189 0.728,-0.588 0,-0.434 -0.273,-0.644 -0.791,-0.644 h -0.707 v 1.232 z m -0.77,-1.687 h 0.756 c 0.546,0 0.91,-0.175 0.91,-0.665 0,-0.364 -0.203,-0.672 -0.896,-0.672 h -0.77 z m 3.038,-1.449 c 0,-0.231 0.168,-0.399 0.413,-0.399 0.245,0 0.413,0.168 0.413,0.399 0,0.231 -0.168,0.399 -0.413,0.399 -0.245,0 -0.413,-0.168 -0.413,-0.399 m 1.841,-0.35 h 0.581 v 1.799 h 1.82 v -1.799 h 0.581 v 3.948 h -0.581 v -1.673 h -1.82 v 1.673 h -0.581 z m 7.014,2.856 c 0,0.882 -0.791,1.092 -1.365,1.092 h -1.407 v -3.948 h 0.574 v 1.673 h 0.707 l 0.959,-1.673 h 0.693 l -1.029,1.729 c 0.525,0.14 0.868,0.539 0.868,1.127 m -0.588,-0.028 c 0,-0.392 -0.238,-0.686 -0.826,-0.686 h -0.784 v 1.33 h 0.721 c 0.574,0 0.889,-0.196 0.889,-0.644" /><path
           id="path82"
           style="fill:#868484;fill-opacity:1;fill-rule:nonzero;stroke:none"
           d="m 417.581,132.748 h 0.511 v 6.762 h -0.511 z m 2.954,4.291 h 1.134 v -3.108 h 0.994 v 3.108 h 1.127 v 0.84 h -3.255 z m 6.762,-3.108 v 0.826 h -1.883 v 0.791 h 1.722 v 0.819 h -1.722 v 0.679 h 1.855 v 0.833 h -2.842 v -3.948 z m 0.784,0 h 2.709 v 0.833 h -1.715 v 3.115 h -0.994 z m 4.858,2.023 h 1.477 v -1.526 h 0.483 v 1.526 h 1.484 v 0.483 h -1.484 v 1.484 h -0.483 v -1.484 h -1.477 z m 4.69,0.742 c 0.056,0.364 0.308,0.798 0.875,0.798 0.469,0 0.84,-0.301 0.84,-0.819 0,-0.518 -0.371,-0.889 -1.043,-0.889 -0.112,0 -0.231,0.007 -0.231,0.007 v -0.49 c 0,0 0.084,0.007 0.238,0.007 0.756,0 1.148,-0.392 1.148,-0.945 0,-0.476 -0.301,-0.903 -0.966,-0.903 -0.735,0 -0.91,0.525 -0.959,0.868 l -0.56,-0.14 c 0.021,-0.434 0.42,-1.197 1.512,-1.197 1.05,0 1.568,0.686 1.568,1.379 0,0.567 -0.343,1.078 -0.875,1.197 0.455,0.175 0.749,0.574 0.749,1.085 0,0.686 -0.525,1.302 -1.421,1.302 -0.931,0 -1.337,-0.679 -1.435,-1.134 z m 4.683,-2.849 c 1.099,0 1.631,0.714 1.631,1.379 0,0.546 -0.35,1.071 -0.889,1.19 0.42,0.161 0.735,0.567 0.735,1.085 0,0.665 -0.511,1.316 -1.47,1.316 -0.973,0 -1.484,-0.651 -1.484,-1.316 0,-0.518 0.315,-0.924 0.735,-1.085 -0.539,-0.119 -0.889,-0.644 -0.889,-1.19 0,-0.665 0.532,-1.379 1.631,-1.379 m 0.896,3.675 c 0,-0.483 -0.294,-0.889 -0.896,-0.889 -0.602,0 -0.896,0.406 -0.896,0.889 0,0.532 0.357,0.833 0.903,0.833 0.532,0 0.889,-0.301 0.889,-0.833 m -0.896,-3.206 c -0.847,0 -1.036,0.56 -1.036,0.917 0,0.476 0.329,0.924 1.036,0.924 0.707,0 1.036,-0.448 1.036,-0.924 0,-0.357 -0.189,-0.917 -1.036,-0.917 m 2.226,-0.091 c 0.007,-0.455 0.427,-1.232 1.456,-1.232 1.036,0 1.631,0.763 1.631,1.61 0,0.777 -0.49,1.596 -1.505,1.596 -0.483,0 -0.756,-0.189 -0.91,-0.343 l 0.168,1.54 h 1.932 l 0.084,0.483 h -2.45 l -0.28,-2.597 0.49,-0.077 c 0.14,0.308 0.476,0.525 0.903,0.525 0.707,0 0.973,-0.595 0.973,-1.141 0,-0.672 -0.413,-1.127 -1.022,-1.127 -0.595,0 -0.882,0.427 -0.931,0.903 z m 5.571,1.855 c 0,-1.421 0.638,-2.814 1.506,-3.395 l 0.343,0.21 c -0.91,0.826 -1.246,1.925 -1.246,3.185 0,1.267 0.336,2.359 1.246,3.185 l -0.343,0.21 c -0.868,-0.581 -1.506,-1.974 -1.506,-3.395 m 3.116,1.813 c -0.224,-0.273 -0.603,-0.427 -1.057,-0.49 l 0.112,-0.441 c 0.357,0.014 0.657,0.119 0.847,0.273 v -3.304 h 0.588 v 3.962 z m 3.002,-1.813 c 0,1.421 -0.637,2.814 -1.505,3.395 l -0.343,-0.21 c 0.91,-0.826 1.246,-1.925 1.246,-3.185 0,-1.267 -0.336,-2.359 -1.246,-3.185 l 0.343,-0.21 c 0.868,0.581 1.505,1.974 1.505,3.395 m 2.45,-2.149 h 2.926 v 0.483 h -2.128 c 0.511,0.336 0.987,0.679 1.372,1.029 0.392,0.357 0.714,0.756 0.714,1.274 0,0.581 -0.399,1.239 -1.351,1.239 -0.868,0 -1.379,-0.574 -1.519,-1.358 l 0.581,-0.098 c 0.049,0.427 0.308,0.98 0.931,0.98 0.469,0 0.756,-0.322 0.756,-0.756 0,-0.399 -0.252,-0.728 -0.546,-0.98 -0.357,-0.315 -1.736,-1.351 -1.736,-1.351 z m 3.304,3.465 h 2.513 c -0.63,-0.707 -1.687,-2.373 -1.687,-4.319 h 0.602 c 0,1.974 1.085,3.612 1.722,4.417 v 0.385 h -3.066 z m 5.229,-3.549 c 1.099,0 1.631,0.714 1.631,1.379 0,0.546 -0.35,1.071 -0.889,1.19 0.42,0.161 0.735,0.567 0.735,1.085 0,0.665 -0.511,1.316 -1.47,1.316 -0.973,0 -1.484,-0.651 -1.484,-1.316 0,-0.518 0.315,-0.924 0.735,-1.085 -0.539,-0.119 -0.889,-0.644 -0.889,-1.19 0,-0.665 0.532,-1.379 1.631,-1.379 m 0.896,3.675 c 0,-0.483 -0.294,-0.889 -0.896,-0.889 -0.602,0 -0.896,0.406 -0.896,0.889 0,0.532 0.357,0.833 0.903,0.833 0.532,0 0.889,-0.301 0.889,-0.833 m -0.896,-3.206 c -0.847,0 -1.036,0.56 -1.036,0.917 0,0.476 0.329,0.924 1.036,0.924 0.707,0 1.036,-0.448 1.036,-0.924 0,-0.357 -0.189,-0.917 -1.036,-0.917 m 3.213,3.577 c -0.224,-0.273 -0.602,-0.427 -1.057,-0.49 l 0.112,-0.441 c 0.357,0.014 0.658,0.119 0.847,0.273 v -3.304 h 0.588 v 3.962 z m 5.019,-0.014 -2.03,-3.199 v -0.441 h 2.226 v -1.162 h 0.546 v 1.162 h 0.693 l 0.084,0.448 h -0.777 v 3.192 z m -1.484,-3.192 1.666,2.667 h 0.014 v -2.667 z m 5.404,3.192 -2.03,-3.199 v -0.441 h 2.226 v -1.162 h 0.546 v 1.162 h 0.693 l 0.084,0.448 h -0.777 v 3.192 z m -1.484,-3.192 1.666,2.667 h 0.014 v -2.667 z m 5.159,3.269 c -1.057,0 -1.736,-0.791 -1.736,-2.058 0,-1.267 0.672,-2.051 1.736,-2.051 1.064,0 1.736,0.784 1.736,2.051 0,1.267 -0.679,2.058 -1.736,2.058 m 0,-3.633 c -0.777,0 -1.127,0.728 -1.127,1.575 0,0.833 0.343,1.582 1.127,1.582 0.784,0 1.127,-0.749 1.127,-1.582 0,-0.847 -0.35,-1.575 -1.127,-1.575 m 4.424,-1.575 h 0.511 v 6.762 h -0.511 z m 4.312,1.183 v 1.617 h 1.715 v 0.819 h -1.715 v 0.679 h 1.869 v 0.833 h -2.856 v -3.948 z m 4.417,3.948 h -1.092 l -1.393,-3.948 h 0.973 l 0.294,0.868 h 1.316 l 0.294,-0.868 h 1.001 z m -0.553,-0.896 c 0.014,-0.168 0.392,-1.407 0.392,-1.407 h -0.791 c 0,0 0.364,1.239 0.378,1.407 z m 6.055,0.896 h -1.113 l -0.742,-1.099 -0.763,1.099 h -1.162 l 1.323,-1.925 -1.449,-2.023 h 1.12 l 0.882,1.239 0.875,-1.239 h 1.169 l -1.449,2.079 z m 2.26,-1.925 h 1.477 v -1.526 h 0.483 v 1.526 h 1.484 v 0.483 h -1.484 v 1.484 h -0.483 v -1.484 h -1.477 z m 4.69,0.742 c 0.056,0.364 0.308,0.798 0.875,0.798 0.469,0 0.84,-0.301 0.84,-0.819 0,-0.518 -0.371,-0.889 -1.043,-0.889 -0.112,0 -0.231,0.007 -0.231,0.007 v -0.49 c 0,0 0.084,0.007 0.238,0.007 0.756,0 1.148,-0.392 1.148,-0.945 0,-0.476 -0.301,-0.903 -0.966,-0.903 -0.735,0 -0.91,0.525 -0.959,0.868 l -0.56,-0.14 c 0.021,-0.434 0.42,-1.197 1.512,-1.197 1.05,0 1.568,0.686 1.568,1.379 0,0.567 -0.343,1.078 -0.875,1.197 0.455,0.175 0.749,0.574 0.749,1.085 0,0.686 -0.525,1.302 -1.421,1.302 -0.931,0 -1.337,-0.679 -1.435,-1.134 z m 4.683,-2.849 c 1.099,0 1.631,0.714 1.631,1.379 0,0.546 -0.35,1.071 -0.889,1.19 0.42,0.161 0.735,0.567 0.735,1.085 0,0.665 -0.511,1.316 -1.47,1.316 -0.973,0 -1.484,-0.651 -1.484,-1.316 0,-0.518 0.315,-0.924 0.735,-1.085 -0.539,-0.119 -0.889,-0.644 -0.889,-1.19 0,-0.665 0.532,-1.379 1.631,-1.379 m 0.896,3.675 c 0,-0.483 -0.294,-0.889 -0.896,-0.889 -0.602,0 -0.896,0.406 -0.896,0.889 0,0.532 0.357,0.833 0.903,0.833 0.532,0 0.889,-0.301 0.889,-0.833 m -0.896,-3.206 c -0.847,0 -1.036,0.56 -1.036,0.917 0,0.476 0.329,0.924 1.036,0.924 0.707,0 1.036,-0.448 1.036,-0.924 0,-0.357 -0.189,-0.917 -1.036,-0.917 m 2.226,-0.091 c 0.007,-0.455 0.427,-1.232 1.456,-1.232 1.036,0 1.631,0.763 1.631,1.61 0,0.777 -0.49,1.596 -1.505,1.596 -0.483,0 -0.756,-0.189 -0.91,-0.343 l 0.168,1.54 h 1.932 l 0.084,0.483 h -2.45 l -0.28,-2.597 0.49,-0.077 c 0.14,0.308 0.476,0.525 0.903,0.525 0.707,0 0.973,-0.595 0.973,-1.141 0,-0.672 -0.413,-1.127 -1.022,-1.127 -0.595,0 -0.882,0.427 -0.931,0.903 z m 5.572,1.855 c 0,-1.421 0.637,-2.814 1.505,-3.395 l 0.343,0.21 c -0.91,0.826 -1.246,1.925 -1.246,3.185 0,1.267 0.336,2.359 1.246,3.185 l -0.343,0.21 c -0.868,-0.581 -1.505,-1.974 -1.505,-3.395 m 3.115,1.813 c -0.224,-0.273 -0.602,-0.427 -1.057,-0.49 l 0.112,-0.441 c 0.357,0.014 0.658,0.119 0.847,0.273 v -3.304 h 0.588 v 3.962 z m 3.003,-1.813 c 0,1.421 -0.637,2.814 -1.505,3.395 l -0.343,-0.21 c 0.91,-0.826 1.246,-1.925 1.246,-3.185 0,-1.267 -0.336,-2.359 -1.246,-3.185 l 0.343,-0.21 c 0.868,0.581 1.505,1.974 1.505,3.395 m 2.45,-2.149 h 2.926 v 0.483 h -2.128 c 0.511,0.336 0.987,0.679 1.372,1.029 0.392,0.357 0.714,0.756 0.714,1.274 0,0.581 -0.399,1.239 -1.351,1.239 -0.868,0 -1.379,-0.574 -1.519,-1.358 l 0.581,-0.098 c 0.049,0.427 0.308,0.98 0.931,0.98 0.469,0 0.756,-0.322 0.756,-0.756 0,-0.399 -0.252,-0.728 -0.546,-0.98 -0.357,-0.315 -1.736,-1.351 -1.736,-1.351 z m 3.304,3.465 h 2.513 c -0.63,-0.707 -1.687,-2.373 -1.687,-4.319 h 0.602 c 0,1.974 1.085,3.612 1.722,4.417 v 0.385 h -3.066 z m 5.229,-3.549 c 1.099,0 1.631,0.714 1.631,1.379 0,0.546 -0.35,1.071 -0.889,1.19 0.42,0.161 0.735,0.567 0.735,1.085 0,0.665 -0.511,1.316 -1.47,1.316 -0.973,0 -1.484,-0.651 -1.484,-1.316 0,-0.518 0.315,-0.924 0.735,-1.085 -0.539,-0.119 -0.889,-0.644 -0.889,-1.19 0,-0.665 0.532,-1.379 1.631,-1.379 m 0.896,3.675 c 0,-0.483 -0.294,-0.889 -0.896,-0.889 -0.602,0 -0.896,0.406 -0.896,0.889 0,0.532 0.357,0.833 0.903,0.833 0.532,0 0.889,-0.301 0.889,-0.833 m -0.896,-3.206 c -0.847,0 -1.036,0.56 -1.036,0.917 0,0.476 0.329,0.924 1.036,0.924 0.707,0 1.036,-0.448 1.036,-0.924 0,-0.357 -0.189,-0.917 -1.036,-0.917 m 3.213,3.577 c -0.224,-0.273 -0.602,-0.427 -1.057,-0.49 l 0.112,-0.441 c 0.357,0.014 0.658,0.119 0.847,0.273 v -3.304 h 0.588 v 3.962 z m 5.019,-0.014 -2.03,-3.199 v -0.441 h 2.226 v -1.162 h 0.546 v 1.162 h 0.693 l 0.084,0.448 h -0.777 v 3.192 z m -1.484,-3.192 1.666,2.667 h 0.014 v -2.667 z m 5.404,3.192 -2.03,-3.199 v -0.441 h 2.226 v -1.162 h 0.546 v 1.162 h 0.693 l 0.084,0.448 h -0.777 v 3.192 z m -1.484,-3.192 1.666,2.667 h 0.014 v -2.667 z m 3.395,-0.462 c 0.007,-0.455 0.427,-1.232 1.456,-1.232 1.036,0 1.631,0.763 1.631,1.61 0,0.777 -0.49,1.596 -1.505,1.596 -0.483,0 -0.756,-0.189 -0.91,-0.343 l 0.168,1.54 h 1.932 l 0.084,0.483 h -2.45 l -0.28,-2.597 0.49,-0.077 c 0.14,0.308 0.476,0.525 0.903,0.525 0.707,0 0.973,-0.595 0.973,-1.141 0,-0.672 -0.413,-1.127 -1.022,-1.127 -0.595,0 -0.882,0.427 -0.931,0.903 z" /><path
           id="path84"
           style="fill:#868484;fill-opacity:1;fill-rule:nonzero;stroke:none"
           d="m 356.64,141.548 h 0.511 v 6.762 h -0.511 z m 3.451,1.183 h 0.581 v 3.948 h -0.581 z m 1.84,0 h 0.539 v 3.073 h 0.014 c 0.455,-0.714 1.967,-3.073 1.967,-3.073 h 0.616 v 3.948 h -0.539 v -3.073 h -0.014 c -0.413,0.658 -1.967,3.073 -1.967,3.073 h -0.616 z m 4.396,0 h 1.372 c 1.134,0 1.834,0.728 1.834,1.974 0,1.239 -0.7,1.974 -1.834,1.974 h -1.372 z m 2.604,1.974 c 0,-0.896 -0.399,-1.498 -1.302,-1.498 h -0.721 v 2.996 h 0.721 c 0.903,0 1.302,-0.602 1.302,-1.498 m 3.059,-2.058 c 1.015,0 1.484,0.511 1.484,1.484 v 2.548 h -0.581 v -2.555 c 0,-0.504 -0.21,-1.001 -0.903,-1.001 -0.686,0 -0.896,0.497 -0.896,1.001 v 2.555 h -0.581 v -2.548 c 0,-0.973 0.469,-1.484 1.477,-1.484 m 3.115,3.017 c 0,0.378 0.252,0.63 0.777,0.63 0.56,0 0.833,-0.273 0.903,-0.721 l 0.574,0.14 c -0.112,0.651 -0.644,1.043 -1.442,1.043 -0.826,0 -1.407,-0.42 -1.407,-1.141 0,-0.693 0.511,-0.98 1.372,-1.106 0.714,-0.105 0.959,-0.294 0.959,-0.686 0,-0.448 -0.329,-0.714 -0.875,-0.714 -0.686,0 -0.938,0.406 -0.973,0.812 l -0.574,-0.091 c 0.028,-0.651 0.567,-1.183 1.533,-1.183 0.917,0 1.491,0.49 1.491,1.218 0,0.721 -0.504,1.008 -1.4,1.155 -0.7,0.112 -0.938,0.252 -0.938,0.644 m 2.765,0.539 h 1.162 v -3.472 h 0.581 v 3.472 h 1.169 v 0.476 h -2.912 z m 6.475,-0.616 c 0,0.882 -0.791,1.092 -1.365,1.092 h -1.407 v -3.948 h 0.574 v 1.673 h 0.707 l 0.959,-1.673 h 0.693 l -1.029,1.729 c 0.525,0.14 0.868,0.539 0.868,1.127 m -0.588,-0.028 c 0,-0.392 -0.238,-0.686 -0.826,-0.686 h -0.784 v 1.33 h 0.721 c 0.574,0 0.889,-0.196 0.889,-0.644 m 1.652,-2.828 h 0.581 v 3.948 h -0.581 z m 2.198,0.392 c -0.245,0 -0.371,0.112 -0.567,0.343 l -0.385,-0.378 c 0.217,-0.259 0.483,-0.441 0.98,-0.441 0.917,0 1.085,0.637 1.085,1.372 v 2.66 h -0.581 v -2.66 c 0,-0.609 -0.14,-0.896 -0.532,-0.896 m 2.744,2.541 c 0,0.378 0.252,0.63 0.777,0.63 0.56,0 0.833,-0.273 0.903,-0.721 l 0.574,0.14 c -0.112,0.651 -0.644,1.043 -1.442,1.043 -0.826,0 -1.407,-0.42 -1.407,-1.141 0,-0.693 0.511,-0.98 1.372,-1.106 0.714,-0.105 0.959,-0.294 0.959,-0.686 0,-0.448 -0.329,-0.714 -0.875,-0.714 -0.686,0 -0.938,0.406 -0.973,0.812 l -0.574,-0.091 c 0.028,-0.651 0.567,-1.183 1.533,-1.183 0.917,0 1.491,0.49 1.491,1.218 0,0.721 -0.504,1.008 -1.4,1.155 -0.7,0.112 -0.938,0.252 -0.938,0.644 M 396,142.731 h 0.707 l -1.624,2.352 1.491,1.596 h -0.686 l -1.617,-1.715 v 1.715 h -0.581 v -3.948 h 0.581 v 1.512 l 0.406,0.42 z m 2.933,3.948 h -0.56 l -1.442,-3.948 h 0.567 l 0.371,1.029 h 1.533 l 0.364,-1.029 h 0.609 z m -0.294,-0.721 c 0.098,-0.308 0.602,-1.736 0.602,-1.736 h -1.211 c 0,0 0.504,1.428 0.595,1.736 z m 5.572,-3.311 c 1.015,0 1.484,0.511 1.484,1.484 v 2.548 h -0.581 v -2.555 c 0,-0.504 -0.21,-1.001 -0.903,-1.001 -0.686,0 -0.896,0.497 -0.896,1.001 v 2.555 h -0.581 v -2.548 c 0,-0.973 0.469,-1.484 1.477,-1.484 m 2.695,0.084 h 2.331 v 0.476 h -1.75 v 3.472 h -0.581 z m 3.115,0 h 0.581 v 3.948 h -0.581 z m 1.609,1.96 c 0,-1.225 0.679,-2.044 1.813,-2.044 0.784,0 1.281,0.392 1.547,1.029 l -0.546,0.196 c -0.175,-0.455 -0.497,-0.749 -1.015,-0.749 -0.77,0 -1.197,0.651 -1.197,1.568 0,0.966 0.441,1.589 1.197,1.589 0.546,0 0.854,-0.322 1.015,-0.763 l 0.553,0.196 c -0.259,0.644 -0.756,1.043 -1.547,1.043 -1.127,0 -1.82,-0.812 -1.82,-2.065 m 5.747,1.988 h -0.56 l -1.442,-3.948 h 0.567 l 0.371,1.029 h 1.533 l 0.364,-1.029 h 0.609 z m -0.294,-0.721 c 0.098,-0.308 0.602,-1.736 0.602,-1.736 h -1.211 c 0,0 0.504,1.428 0.595,1.736 z m 4.781,0.735 c -0.224,-0.273 -0.602,-0.427 -1.057,-0.49 l 0.112,-0.441 c 0.357,0.014 0.658,0.119 0.847,0.273 v -3.304 h 0.588 v 3.962 z m 2.506,-3.794 c 0,0.308 -0.14,0.581 -0.462,0.581 -0.273,0 -0.399,-0.21 -0.399,-0.392 0,-0.224 0.182,-0.385 0.371,-0.385 0.049,0 0.077,0.007 0.077,0.007 v -0.042 c 0,-0.21 -0.203,-0.406 -0.385,-0.413 l 0.105,-0.28 c 0.574,0.105 0.693,0.609 0.693,0.924 m 2.765,-0.168 h 1.54 c 0.749,0 1.281,0.469 1.281,1.141 0,0.581 -0.399,0.854 -0.798,0.91 0.287,0.112 0.63,0.357 0.63,0.903 0,0.609 -0.406,0.994 -1.19,0.994 h -1.463 z m 1.337,3.486 c 0.497,0 0.728,-0.189 0.728,-0.588 0,-0.434 -0.273,-0.644 -0.791,-0.644 h -0.707 v 1.232 z m -0.77,-1.687 h 0.756 c 0.546,0 0.91,-0.175 0.91,-0.665 0,-0.364 -0.203,-0.672 -0.896,-0.672 h -0.77 z m 3.017,0.175 c 0,-1.281 0.735,-2.058 1.813,-2.058 1.071,0 1.806,0.777 1.806,2.058 0,1.267 -0.735,2.051 -1.806,2.051 -1.078,0 -1.813,-0.784 -1.813,-2.051 m 0.602,0 c 0,0.903 0.399,1.575 1.211,1.575 0.805,0 1.204,-0.672 1.204,-1.575 0,-0.903 -0.399,-1.582 -1.204,-1.582 -0.812,0 -1.211,0.679 -1.211,1.582 m 6.118,3.213 -0.287,0.259 -0.693,-0.749 -0.686,0.749 -0.294,-0.259 0.784,-0.903 h 0.385 z m -2.464,-1.708 h 2.226 l -2.289,-3.073 v -0.406 h 2.996 v 0.469 h -2.261 l 2.275,3.059 v 0.42 h -2.947 z m 4.249,-3.087 c -0.245,0 -0.371,0.112 -0.567,0.343 l -0.385,-0.378 c 0.217,-0.259 0.483,-0.441 0.98,-0.441 0.917,0 1.085,0.637 1.085,1.372 v 2.66 h -0.581 v -2.66 c 0,-0.609 -0.14,-0.896 -0.532,-0.896 m 3.759,3.556 h -0.56 l -1.442,-3.948 h 0.567 l 0.371,1.029 h 1.533 l 0.364,-1.029 h 0.609 z m -0.294,-0.721 c 0.098,-0.308 0.602,-1.736 0.602,-1.736 h -1.211 c 0,0 0.504,1.428 0.595,1.736 z m 4.809,-3.227 h 0.707 l -1.624,2.352 1.491,1.596 h -0.686 l -1.617,-1.715 v 1.715 h -0.581 v -3.948 h 0.581 v 1.512 l 0.406,0.42 z m 1.057,1.974 c 0,-1.281 0.735,-2.058 1.813,-2.058 1.071,0 1.806,0.777 1.806,2.058 0,1.267 -0.735,2.051 -1.806,2.051 -1.078,0 -1.813,-0.784 -1.813,-2.051 m 0.602,0 c 0,0.903 0.399,1.575 1.211,1.575 0.805,0 1.204,-0.672 1.204,-1.575 0,-0.903 -0.399,-1.582 -1.204,-1.582 -0.812,0 -1.211,0.679 -1.211,1.582 m 3.465,1.974 1.449,-3.948 h 0.553 l 1.463,3.948 h -0.588 c 0,0 -0.826,-2.261 -1.127,-3.213 h -0.007 c -0.301,0.952 -1.127,3.213 -1.127,3.213 z m 4.214,-3.948 h 0.581 v 3.948 h -0.581 z m 1.841,0 h 0.539 v 3.073 h 0.014 c 0.455,-0.714 1.967,-3.073 1.967,-3.073 h 0.616 v 3.948 h -0.539 v -3.073 h -0.014 c -0.413,0.658 -1.967,3.073 -1.967,3.073 h -0.616 z m 5.901,3.948 h -0.56 l -1.442,-3.948 h 0.567 l 0.371,1.029 h 1.533 l 0.364,-1.029 h 0.609 z m -0.294,-0.721 c 0.098,-0.308 0.602,-1.736 0.602,-1.736 h -1.211 c 0,0 0.504,1.428 0.595,1.736 z m 3.325,-3.059 c 0,0.308 -0.14,0.581 -0.462,0.581 -0.273,0 -0.399,-0.21 -0.399,-0.392 0,-0.224 0.182,-0.385 0.371,-0.385 0.049,0 0.077,0.007 0.077,0.007 v -0.042 c 0,-0.21 -0.203,-0.406 -0.385,-0.413 l 0.105,-0.28 c 0.574,0.105 0.693,0.609 0.693,0.924 m 3.402,3.794 c -0.224,-0.273 -0.602,-0.427 -1.057,-0.49 l 0.112,-0.441 c 0.357,0.014 0.658,0.119 0.847,0.273 v -3.304 h 0.588 v 3.962 z m 3.269,0.063 c -1.057,0 -1.736,-0.791 -1.736,-2.058 0,-1.267 0.672,-2.051 1.736,-2.051 1.064,0 1.736,0.784 1.736,2.051 0,1.267 -0.679,2.058 -1.736,2.058 m 0,-3.633 c -0.777,0 -1.127,0.728 -1.127,1.575 0,0.833 0.343,1.582 1.127,1.582 0.784,0 1.127,-0.749 1.127,-1.582 0,-0.847 -0.35,-1.575 -1.127,-1.575 m 3.927,2.373 c 0.056,0.364 0.308,0.798 0.875,0.798 0.469,0 0.84,-0.301 0.84,-0.819 0,-0.518 -0.371,-0.889 -1.043,-0.889 -0.112,0 -0.231,0.007 -0.231,0.007 v -0.49 c 0,0 0.084,0.007 0.238,0.007 0.756,0 1.148,-0.392 1.148,-0.945 0,-0.476 -0.301,-0.903 -0.966,-0.903 -0.735,0 -0.91,0.525 -0.959,0.868 l -0.56,-0.14 c 0.021,-0.434 0.42,-1.197 1.512,-1.197 1.05,0 1.568,0.686 1.568,1.379 0,0.567 -0.343,1.078 -0.875,1.197 0.455,0.175 0.749,0.574 0.749,1.085 0,0.686 -0.525,1.302 -1.421,1.302 -0.931,0 -1.337,-0.679 -1.435,-1.134 z m 2.764,0.7 h 2.513 c -0.63,-0.707 -1.687,-2.373 -1.687,-4.319 h 0.602 c 0,1.974 1.085,3.612 1.723,4.417 v 0.385 h -3.067 z m 5.258,0.56 c -1.057,0 -1.736,-0.791 -1.736,-2.058 0,-1.267 0.672,-2.051 1.736,-2.051 1.064,0 1.736,0.784 1.736,2.051 0,1.267 -0.679,2.058 -1.736,2.058 m 0,-3.633 c -0.777,0 -1.127,0.728 -1.127,1.575 0,0.833 0.343,1.582 1.127,1.582 0.784,0 1.127,-0.749 1.127,-1.582 0,-0.847 -0.35,-1.575 -1.127,-1.575 m 4.388,-0.392 h 1.372 c 1.134,0 1.834,0.728 1.834,1.974 0,1.239 -0.7,1.974 -1.834,1.974 h -1.372 z m 2.604,1.974 c 0,-0.896 -0.399,-1.498 -1.302,-1.498 h -0.721 v 2.996 h 0.721 c 0.903,0 1.302,-0.602 1.302,-1.498 m 3.059,-2.058 c 1.015,0 1.484,0.511 1.484,1.484 v 2.548 h -0.581 v -2.555 c 0,-0.504 -0.21,-1.001 -0.903,-1.001 -0.686,0 -0.896,0.497 -0.896,1.001 v 2.555 h -0.581 v -2.548 c 0,-0.973 0.469,-1.484 1.477,-1.484 m 4.172,1.631 h 1.113 v -0.259 c 0,-0.609 -0.462,-0.896 -1.001,-0.896 -0.777,0 -1.218,0.553 -1.218,1.547 0,1.057 0.497,1.61 1.225,1.61 0.525,0 0.861,-0.301 1.036,-0.749 l 0.539,0.21 c -0.28,0.644 -0.819,1.015 -1.547,1.015 -1.155,0 -1.855,-0.847 -1.855,-2.051 0,-1.155 0.623,-2.058 1.764,-2.058 0.609,0 0.931,0.266 1.092,0.504 v -0.42 h 0.525 v 2.002 h -1.673 z m 2.632,0.427 c 0,-1.281 0.735,-2.058 1.813,-2.058 1.071,0 1.806,0.777 1.806,2.058 0,1.267 -0.735,2.051 -1.806,2.051 -1.078,0 -1.813,-0.784 -1.813,-2.051 m 0.602,0 c 0,0.903 0.399,1.575 1.211,1.575 0.805,0 1.204,-0.672 1.204,-1.575 0,-0.903 -0.399,-1.582 -1.204,-1.582 -0.812,0 -1.211,0.679 -1.211,1.582 m 6.111,0.959 c 0,0.378 0.252,0.63 0.777,0.63 0.56,0 0.833,-0.273 0.903,-0.721 l 0.574,0.14 c -0.112,0.651 -0.644,1.043 -1.442,1.043 -0.826,0 -1.407,-0.42 -1.407,-1.141 0,-0.693 0.511,-0.98 1.372,-1.106 0.714,-0.105 0.959,-0.294 0.959,-0.686 0,-0.448 -0.329,-0.714 -0.875,-0.714 -0.686,0 -0.938,0.406 -0.973,0.812 l -0.574,-0.091 c 0.028,-0.651 0.567,-1.183 1.533,-1.183 0.917,0 1.491,0.49 1.491,1.218 0,0.721 -0.504,1.008 -1.4,1.155 -0.7,0.112 -0.938,0.252 -0.938,0.644 m 5.789,-2.933 v 0.476 h -1.869 v 1.323 h 1.715 v 0.469 h -1.715 v 1.204 h 1.834 v 0.476 h -2.415 v -3.948 z m 0.973,0 h 2.331 v 0.476 h -1.75 v 3.472 h -0.581 z m 2.744,1.974 c 0,-1.281 0.735,-2.058 1.813,-2.058 1.071,0 1.806,0.777 1.806,2.058 0,1.267 -0.735,2.051 -1.806,2.051 -1.078,0 -1.813,-0.784 -1.813,-2.051 m 0.602,0 c 0,0.903 0.399,1.575 1.211,1.575 0.805,0 1.204,-0.672 1.204,-1.575 0,-0.903 -0.399,-1.582 -1.204,-1.582 -0.812,0 -1.211,0.679 -1.211,1.582 m 4.487,-1.806 c 0,0.308 -0.14,0.581 -0.462,0.581 -0.273,0 -0.399,-0.21 -0.399,-0.392 0,-0.224 0.182,-0.385 0.371,-0.385 0.049,0 0.077,0.007 0.077,0.007 v -0.042 c 0,-0.21 -0.203,-0.406 -0.385,-0.413 l 0.105,-0.28 c 0.574,0.105 0.693,0.609 0.693,0.924 m 2.765,-0.168 h 0.581 v 1.799 h 1.82 v -1.799 h 0.581 v 3.948 h -0.581 v -1.673 h -1.82 v 1.673 h -0.581 z m 7.014,2.856 c 0,0.882 -0.791,1.092 -1.365,1.092 h -1.407 v -3.948 h 0.574 v 1.673 h 0.707 l 0.959,-1.673 h 0.693 l -1.029,1.729 c 0.525,0.14 0.868,0.539 0.868,1.127 m -0.588,-0.028 c 0,-0.392 -0.238,-0.686 -0.826,-0.686 h -0.784 v 1.33 h 0.721 c 0.574,0 0.889,-0.196 0.889,-0.644 m 1.141,1.12 1.449,-3.948 h 0.553 l 1.463,3.948 h -0.588 c 0,0 -0.826,-2.261 -1.127,-3.213 h -0.007 c -0.301,0.952 -1.127,3.213 -1.127,3.213 z m 5.404,0 h -0.56 l -1.442,-3.948 h 0.567 l 0.371,1.029 h 1.533 l 0.364,-1.029 h 0.609 z m -0.294,-0.721 c 0.098,-0.308 0.602,-1.736 0.602,-1.736 h -1.211 c 0,0 0.504,1.428 0.595,1.736 z m 1.68,0.245 h 1.162 v -3.472 h 0.581 v 3.472 h 1.169 v 0.476 h -2.912 z m 4.053,-0.539 c 0,0.378 0.252,0.63 0.777,0.63 0.56,0 0.833,-0.273 0.903,-0.721 l 0.574,0.14 c -0.112,0.651 -0.644,1.043 -1.442,1.043 -0.826,0 -1.407,-0.42 -1.407,-1.141 0,-0.693 0.511,-0.98 1.372,-1.106 0.714,-0.105 0.959,-0.294 0.959,-0.686 0,-0.448 -0.329,-0.714 -0.875,-0.714 -0.686,0 -0.938,0.406 -0.973,0.812 l -0.574,-0.091 c 0.028,-0.651 0.567,-1.183 1.533,-1.183 0.917,0 1.491,0.49 1.491,1.218 0,0.721 -0.504,1.008 -1.4,1.155 -0.7,0.112 -0.938,0.252 -0.938,0.644 m 5.649,-2.933 h 0.707 l -1.624,2.352 1.491,1.596 h -0.686 l -1.617,-1.715 v 1.715 h -0.581 v -3.948 h 0.581 v 1.512 l 0.406,0.42 z m 2.933,3.948 h -0.56 l -1.443,-3.948 h 0.568 l 0.371,1.029 h 1.533 l 0.364,-1.029 h 0.609 z m -0.295,-0.721 c 0.099,-0.308 0.603,-1.736 0.603,-1.736 h -1.212 c 0,0 0.505,1.428 0.596,1.736 z" /><g
           transform="translate(520.8499,160.3307)"
           id="g86"><path
             id="path88"
             style="fill:#868484;fill-opacity:1;fill-rule:nonzero;stroke:none"
             d="M 0,0 H 0.994 V 1.61 H 2.338 V 0 H 3.332 V 3.948 H 2.338 V 2.443 H 0.994 V 3.948 H 0 Z M 7.21,0 V 0.826 H 5.327 V 1.617 H 7.049 V 2.436 H 5.327 V 3.115 H 7.182 V 3.948 H 4.34 V 0 Z m 0.784,0 h 2.709 V 0.833 H 8.988 V 3.948 H 7.994 Z m 3.339,0 h 1.925 c 0.742,0 1.281,0.518 1.281,1.197 0,0.623 -0.462,0.826 -0.777,0.868 0.315,0.105 0.595,0.392 0.595,0.84 0,0.581 -0.441,1.043 -1.176,1.043 h -1.848 z m 1.533,3.143 c 0.336,0 0.469,-0.119 0.469,-0.378 0,-0.294 -0.161,-0.371 -0.511,-0.371 h -0.532 v 0.749 z m -0.574,-1.54 h 0.623 c 0.42,0 0.602,-0.084 0.602,-0.392 0,-0.266 -0.133,-0.413 -0.595,-0.413 h -0.63 z M 16.835,0 h 1.533 c 1.253,0 2.009,0.707 2.009,1.974 0,1.26 -0.756,1.974 -2.009,1.974 h -1.533 z m 2.499,1.974 c 0,-0.693 -0.301,-1.148 -0.966,-1.148 h -0.539 v 2.289 h 0.539 c 0.665,0 0.966,-0.455 0.966,-1.141 m 1.47,-1.428 c 0,-0.357 0.259,-0.616 0.637,-0.616 0.378,0 0.637,0.259 0.637,0.616 0,0.357 -0.259,0.616 -0.637,0.616 -0.378,0 -0.637,-0.259 -0.637,-0.616 m 1.806,1.428 c 0,-1.295 0.791,-2.072 1.988,-2.072 1.197,0 1.988,0.777 1.988,2.072 0,1.295 -0.791,2.065 -1.988,2.065 -1.197,0 -1.988,-0.77 -1.988,-2.065 m 1.043,0 c 0,0.749 0.301,1.232 0.945,1.232 0.644,0 0.945,-0.483 0.945,-1.232 0,-0.756 -0.301,-1.239 -0.945,-1.239 -0.644,0 -0.945,0.483 -0.945,1.239 m 3.36,-1.428 c 0,-0.357 0.259,-0.616 0.637,-0.616 0.378,0 0.637,0.259 0.637,0.616 0,0.357 -0.259,0.616 -0.637,0.616 -0.378,0 -0.637,-0.259 -0.637,-0.616 m 1.806,1.428 c 0,-1.295 0.791,-2.072 1.988,-2.072 1.197,0 1.988,0.777 1.988,2.072 0,1.295 -0.791,2.065 -1.988,2.065 -1.197,0 -1.988,-0.77 -1.988,-2.065 m 1.043,0 c 0,0.749 0.301,1.232 0.945,1.232 0.644,0 0.945,-0.483 0.945,-1.232 0,-0.756 -0.301,-1.239 -0.945,-1.239 -0.644,0 -0.945,0.483 -0.945,1.239 m 3.36,-1.428 c 0,-0.357 0.259,-0.616 0.637,-0.616 0.378,0 0.637,0.259 0.637,0.616 0,0.357 -0.259,0.616 -0.637,0.616 -0.378,0 -0.637,-0.259 -0.637,-0.616" /></g></g></g></g></svg>